<svg width="31" height="28" viewBox="0 0 31 28" fill="none" xmlns="http://www.w3.org/2000/svg">
<path d="M30.3733 4.54625C30.3127 4.3341 30.1611 4.15965 29.9593 4.07043C29.7445 3.98493 29.504 3.9929 29.2955 4.0922C26.8051 5.13548 21.5144 18.2901 20.7008 20.3437C18.5803 21.0749 18.0242 22.0507 17.0925 23.9718C16.6533 24.8786 15.7043 25.3331 14.9856 25.5552V25.5549C14.698 25.6364 14.502 25.9022 14.5097 26.2009C14.5172 26.5142 14.7328 26.784 15.0365 26.8605C15.6611 27.0344 16.3058 27.1244 16.9539 27.1281C17.8031 27.1228 18.6445 26.9648 19.4379 26.6619H19.4432C19.4483 26.6597 19.4533 26.6587 19.4584 26.6568C21.7005 25.8226 22.8189 22.8359 22.7257 21.3803C23.7843 19.5831 31.1593 6.94035 30.3728 4.54627L30.3733 4.54625ZM20.1016 25.6083C20.1003 25.5116 20.0846 25.4155 20.0551 25.3234C19.9757 25.1014 19.8241 24.9126 19.6247 24.787C19.4253 24.6614 19.1892 24.6065 18.9548 24.6311C18.6762 24.6519 18.4057 24.5334 18.2317 24.3146C18.0275 24.0316 17.9694 23.6684 18.0756 23.3357C18.7397 22.0837 19.3299 21.4414 20.9077 20.9014L22.1339 21.4961C22.1676 22.5864 21.4199 24.5778 20.1016 25.6083ZM21.3058 20.4337C21.6573 19.5495 22.126 18.4061 22.6644 17.1417L24.0794 17.8256C23.4722 18.9121 22.8708 19.9599 22.307 20.9185L21.3058 20.4337Z" fill="#828DD9"/>
<path d="M13.0666 0.00614227C7.57342 0.241934 4.15578 2.43489 1.84191 6.34902C-0.464747 10.2506 -0.520759 15.1593 1.20438 18.7674V18.7676C2.38069 21.1449 4.45365 22.9569 6.96682 23.8044C10.5915 24.9725 15.3264 22.5554 14.7935 18.6025C14.2605 14.6496 16.6309 13.6228 19.6853 12.8998C21.883 12.3791 23.2808 10.8345 23.5784 8.61414C24.5513 1.36122 15.6885 -0.106362 13.0661 0.00579636L13.0666 0.00614227ZM6.69451 5.39737C7.2083 5.29169 7.74309 5.39445 8.18119 5.68308C8.61931 5.9717 8.9247 6.4223 9.03033 6.9364C9.13601 7.45019 9.03325 7.98498 8.74463 8.4228C8.456 8.86092 8.00513 9.16632 7.4913 9.27195C6.97751 9.37789 6.44272 9.27513 6.0049 8.98651C5.56678 8.69788 5.26118 8.24701 5.15548 7.73319C5.0498 7.21939 5.15256 6.68461 5.44119 6.24651C5.72981 5.80839 6.18069 5.503 6.69451 5.39737ZM5.34405 15.7296C4.83025 15.8352 4.29547 15.7325 3.85737 15.4439C3.41952 15.1552 3.11386 14.7044 3.00823 14.1905C2.90255 13.6767 3.00531 13.142 3.2942 12.7039C3.58283 12.2657 4.03342 11.9603 4.54752 11.8547C5.06131 11.749 5.5961 11.8518 6.03393 12.1404C6.47205 12.429 6.77744 12.8799 6.88307 13.3937C6.98875 13.9075 6.88599 14.4423 6.59737 14.8804C6.30874 15.3183 5.85787 15.6239 5.34405 15.7296ZM9.39304 21.2584C8.82136 21.376 8.22632 21.2618 7.73881 20.9408C7.2513 20.6198 6.91114 20.1182 6.79355 19.5462C6.67592 18.9745 6.79036 18.3795 7.11138 17.892C7.43267 17.4045 7.93422 17.0646 8.50623 16.9473C9.07791 16.8296 9.67295 16.9441 10.1605 17.2654C10.6477 17.5867 10.9876 18.0885 11.105 18.6602C11.2223 19.2319 11.1079 19.8264 10.7869 20.3136C10.4659 20.8009 9.96452 21.1405 9.39312 21.2584L9.39304 21.2584ZM13.0844 6.63764C12.5704 6.74306 12.0358 6.64003 11.598 6.35114C11.1602 6.06225 10.8548 5.61137 10.7494 5.09761C10.644 4.58382 10.747 4.04903 11.0359 3.61121C11.3245 3.17335 11.7754 2.86797 12.2892 2.76261C12.803 2.65719 13.3378 2.75995 13.7756 3.04858C14.2138 3.33747 14.5189 3.78835 14.6245 4.3021C14.7302 4.8159 14.6272 5.35096 14.3383 5.78878C14.0494 6.2269 13.5982 6.53228 13.0844 6.63764ZM18.8658 9.27249H18.8655C18.3517 9.37817 17.8169 9.27541 17.3791 8.98678C16.941 8.69815 16.6356 8.24728 16.5299 7.73346C16.4243 7.21966 16.527 6.68488 16.8156 6.24705C17.104 5.80893 17.5549 5.50334 18.0687 5.39764C18.5825 5.29195 19.1173 5.39471 19.5554 5.68334C19.9935 5.97197 20.2989 6.42284 20.4045 6.93666C20.5102 7.45046 20.4072 7.98497 20.1186 8.4228C19.8299 8.86092 19.3793 9.16631 18.8655 9.27194L18.8658 9.27249Z" fill="#828DD9"/>
<path d="M4.26313 25.9626C4.21427 26.3253 3.89033 26.8731 3.56877 26.8298C3.31094 26.7868 3.08444 26.6339 2.94823 26.4108C2.81175 26.1875 2.77909 25.9164 2.85848 25.6673C2.94955 25.3128 3.12613 25.1405 3.44769 25.1841C3.76924 25.2273 4.312 25.5986 4.26313 25.9626Z" fill="#828DD9"/>
<path d="M12.0966 26.3505C10.1224 26.1811 6.87424 25.7895 6.61458 26.6612C6.19584 28.0669 9.49073 28.2751 11.0608 27.7045C12.6312 27.1341 13.0069 26.4288 12.0966 26.3505Z" fill="#828DD9"/>
</svg>
