<svg width="28" height="28" viewBox="0 0 28 28" fill="none" xmlns="http://www.w3.org/2000/svg">
<path d="M13.5334 7.93335H14.4668V8.86668H13.5334V7.93335Z" fill="#828DD9"/>
<path d="M27.5333 0H3.26667C2.40064 0.00104165 1.57019 0.345419 0.95792 0.95792C0.34544 1.57019 0.00106667 2.40064 0 3.26667V25.6667C0.000833333 26.2852 0.246875 26.8783 0.68416 27.3158C1.12166 27.7531 1.71477 27.9991 2.33333 28H27.5333C27.6571 28 27.7758 27.9508 27.8633 27.8633C27.9508 27.7758 28 27.6571 28 27.5333V0.466667C28 0.342917 27.9508 0.224165 27.8633 0.136667C27.7758 0.049168 27.6571 0 27.5333 0ZM0.933333 3.26667C0.933958 2.72896 1.12 2.20789 1.46 1.79125C1.8 1.37479 2.27333 1.08832 2.8 0.98V23.3331H2.33333C1.82687 23.3347 1.33477 23.5031 0.933333 23.8118V3.26667ZM27.0667 25.2H1.86667V26.1333H27.0667V27.0667H2.33333C1.83313 27.0667 1.37104 26.7998 1.12085 26.3667C0.870853 25.9335 0.870853 25.3998 1.12085 24.9667C1.37106 24.5335 1.83312 24.2667 2.33333 24.2667H27.0667V25.2ZM27.0667 23.3333H3.73333V0.933333H27.0667V23.3333Z" fill="#828DD9"/>
<path d="M5.13317 14.9333H25.6665C25.7903 14.9333 25.909 14.8842 25.9965 14.7967C26.084 14.7092 26.1332 14.5904 26.1332 14.4667V2.33334C26.1332 2.20959 26.084 2.09083 25.9965 2.00334C25.909 1.91584 25.7903 1.86667 25.6665 1.86667H5.13317C4.87546 1.86667 4.6665 2.07563 4.6665 2.33334V14.4667C4.6665 14.5904 4.71567 14.7092 4.80317 14.7967C4.89067 14.8842 5.00942 14.9333 5.13317 14.9333ZM8.38298 14L9.40133 12.6H13.5332V11.6667H10.0799L10.7588 10.7333H12.5999V9.8H11.4374L14.7386 5.26086L15.9767 9.8H14.4666V10.7333H16.2316L17.1224 14H8.38298ZM18.0897 14L17.8349 13.0667H18.6665V12.1333H17.5807L16.0532 6.53334L21.4836 14H18.0897ZM5.60005 2.8H25.2001V14H22.6375L15.3106 3.92587C15.2187 3.8115 15.0798 3.74504 14.9331 3.74504C14.7864 3.74504 14.6475 3.8115 14.5556 3.92587L7.22868 14H5.59951L5.60005 2.8Z" fill="#828DD9"/>
<path d="M21.9334 8.4C22.5522 8.4 23.1457 8.15417 23.5835 7.7167C24.021 7.27899 24.2668 6.68544 24.2668 6.06667C24.2668 5.4479 24.0209 4.8544 23.5835 4.41664C23.1458 3.97915 22.5522 3.73334 21.9334 3.73334C21.3147 3.73334 20.7212 3.97917 20.2834 4.41664C19.8459 4.85435 19.6001 5.4479 19.6001 6.06667C19.6009 6.68523 19.847 7.27835 20.2843 7.71584C20.7218 8.15313 21.3149 8.39915 21.9334 8.4ZM21.9334 4.66667C22.3047 4.66667 22.661 4.81417 22.9234 5.07667C23.1859 5.33917 23.3334 5.69544 23.3334 6.06664C23.3334 6.43784 23.1859 6.79416 22.9234 7.05662C22.6609 7.31907 22.3046 7.46662 21.9334 7.46662C21.5622 7.46662 21.2059 7.31912 20.9435 7.05662C20.681 6.79412 20.5335 6.43784 20.5335 6.06664C20.5335 5.69544 20.681 5.33912 20.9435 5.07667C21.206 4.81422 21.5622 4.66667 21.9334 4.66667Z" fill="#828DD9"/>
<path d="M8.3999 4.19998H9.33324V5.13332H8.3999V4.19998Z" fill="#828DD9"/>
<path d="M8.3999 6.06665H9.33324V6.99998H8.3999V6.06665Z" fill="#828DD9"/>
<path d="M7.46655 5.13333H8.39989V6.06666H7.46655V5.13333Z" fill="#828DD9"/>
<path d="M9.33325 5.13333H10.2666V6.06666H9.33325V5.13333Z" fill="#828DD9"/>
<path d="M6.0665 21.9333V22.4H24.7332V21.9333C24.7332 21.6858 24.8315 21.4483 25.0065 21.2733C25.1815 21.0983 25.419 21 25.6665 21H26.1332V17.2667H25.6665C25.419 17.2667 25.1815 17.1683 25.0065 16.9933C24.8315 16.8183 24.7332 16.5808 24.7332 16.3333V15.8667H6.0665V16.3333C6.0665 16.5808 5.96817 16.8183 5.79317 16.9933C5.61817 17.1683 5.38067 17.2667 5.13317 17.2667H4.6665V21H5.13317C5.38067 21 5.61817 21.0983 5.79317 21.2733C5.96817 21.4483 6.0665 21.6858 6.0665 21.9333ZM5.59984 18.1409C5.92255 18.0569 6.2169 17.8884 6.45253 17.6525C6.68837 17.4169 6.8569 17.1225 6.94107 16.8H23.8584C23.9426 17.1225 24.1111 17.4169 24.347 17.6525C24.5826 17.8884 24.877 18.0569 25.1996 18.1409V20.1261V20.1259C24.8769 20.2098 24.5826 20.3784 24.347 20.6142C24.1111 20.8498 23.9426 21.1442 23.8584 21.4667H6.94107C6.85691 21.1442 6.68837 20.8498 6.45253 20.6142C6.2169 20.3784 5.92253 20.2098 5.59984 20.1259V18.1409Z" fill="#828DD9"/>
<path d="M8.8667 17.7333H10.7334V18.6667H8.8667V17.7333Z" fill="#828DD9"/>
<path d="M11.6667 17.7333H18.2001V18.6667H11.6667V17.7333Z" fill="#828DD9"/>
<path d="M19.1333 17.7333H21V18.6667H19.1333V17.7333Z" fill="#828DD9"/>
<path d="M7.46655 19.6H10.2666V20.5333H7.46655V19.6Z" fill="#828DD9"/>
<path d="M11.2 19.6H19.6V20.5333H11.2V19.6Z" fill="#828DD9"/>
<path d="M20.5334 19.6H23.3334V20.5333H20.5334V19.6Z" fill="#828DD9"/>
</svg>
