<svg width="205" height="37" viewBox="0 0 205 37" fill="none" xmlns="http://www.w3.org/2000/svg">
<path d="M45.9301 7V28H50.4301V21.79H54.8701C59.4601 21.79 62.5801 18.85 62.5801 14.38C62.5801 9.94 59.4901 7 54.8701 7H45.9301ZM50.4301 17.92V10.9H54.6001C56.7601 10.9 58.0201 12.19 58.0201 14.38C58.0201 16.6 56.7601 17.92 54.6001 17.92H50.4301ZM73.8941 13.27C72.3041 13.27 70.6841 14.02 69.6641 15.61C69.0341 13.51 67.1741 13.03 64.2041 13.54V16.99C65.5241 16.84 66.0641 17.14 66.0641 18.52V28H70.2641V20.71C70.2641 18.25 71.794 17.08 73.534 17.08C74.374 17.08 75.0641 17.23 75.9041 17.71L77.3141 14.2C76.1141 13.51 75.0341 13.27 73.8941 13.27ZM85.8999 28.3C90.5799 28.3 93.9099 25.18 93.9099 20.71C93.9099 16.24 90.5799 13.24 85.8999 13.24C81.2199 13.24 77.9499 16.24 77.9499 20.71C77.9499 25.21 81.2199 28.3 85.8999 28.3ZM85.9299 24.73C83.6199 24.73 82.0599 23.14 82.0599 20.71C82.0599 18.31 83.6499 16.78 85.9299 16.78C88.2099 16.78 89.7699 18.31 89.7699 20.71C89.7699 23.17 88.2399 24.73 85.9299 24.73ZM199.779 28.3C201.309 28.3 202.449 27.37 202.449 25.87C202.449 24.37 201.309 23.44 199.779 23.44C198.249 23.44 197.109 24.37 197.109 25.87C197.109 27.37 198.249 28.3 199.779 28.3Z" fill="#111739"/>
<path d="M104.844 28.3C109.884 28.3 113.274 25.75 113.274 21.85C113.274 18.25 110.844 16.06 105.024 15.43C102.144 15.1 101.034 14.47 101.034 12.94C101.034 11.56 102.324 10.66 104.604 10.66C106.944 10.66 108.234 11.62 108.354 13.27H112.674C112.524 9.34 109.404 6.7 104.604 6.7C99.7739 6.7 96.5639 9.22 96.5639 12.85C96.5639 16.42 98.9039 18.76 104.274 19.33C107.304 19.66 108.744 20.32 108.744 21.82C108.744 23.38 107.274 24.31 104.784 24.31C102.234 24.31 100.734 23.26 100.674 21.46H96.2939C96.3839 25.63 99.5939 28.3 104.844 28.3ZM123.367 28.3C127.117 28.3 130.057 26.08 130.657 22.42H126.637C126.157 23.86 125.107 24.73 123.307 24.73C121.207 24.73 119.707 23.17 119.707 20.71C119.707 18.31 121.237 16.81 123.307 16.81C124.987 16.81 126.127 17.59 126.667 18.88H130.567C129.997 15.4 127.057 13.24 123.367 13.24C118.807 13.24 115.567 16.27 115.567 20.74C115.567 25.15 118.837 28.3 123.367 28.3ZM147.646 19.36C147.646 15.67 145.366 13.24 142.066 13.24C140.326 13.24 138.856 13.93 137.716 15.04V7H133.546V28H137.716V20.32C137.716 18.25 138.886 16.78 140.836 16.78C142.396 16.78 143.476 17.8 143.476 19.66V23.41C143.476 27.43 145.396 28.54 149.356 28V24.73C148.186 24.88 147.646 24.58 147.646 23.2V19.36ZM159.171 28.3C163.851 28.3 167.181 25.18 167.181 20.71C167.181 16.24 163.851 13.24 159.171 13.24C154.491 13.24 151.221 16.24 151.221 20.71C151.221 25.21 154.491 28.3 159.171 28.3ZM159.201 24.73C156.891 24.73 155.331 23.14 155.331 20.71C155.331 18.31 156.921 16.78 159.201 16.78C161.481 16.78 163.041 18.31 163.041 20.71C163.041 23.17 161.511 24.73 159.201 24.73ZM177.335 28.3C182.015 28.3 185.345 25.18 185.345 20.71C185.345 16.24 182.015 13.24 177.335 13.24C172.655 13.24 169.385 16.24 169.385 20.71C169.385 25.21 172.655 28.3 177.335 28.3ZM177.365 24.73C175.055 24.73 173.495 23.14 173.495 20.71C173.495 18.31 175.085 16.78 177.365 16.78C179.645 16.78 181.205 18.31 181.205 20.71C181.205 23.17 179.675 24.73 177.365 24.73ZM193.069 28.15C193.819 28.15 194.569 28.09 195.379 27.91V24.46C194.959 24.52 194.629 24.55 194.359 24.55C192.919 24.55 192.499 23.98 192.499 22.24V7H188.299V22.33C188.299 26.5 189.739 28.15 193.069 28.15Z" fill="#828DD9"/>
<mask id="mask0_19_3" style="mask-type:luminance" maskUnits="userSpaceOnUse" x="0" y="2" width="31" height="30">
<path d="M30.5 2H0.5V32H30.5V2Z" fill="white"/>
</mask>
<g mask="url(#mask0_19_3)">
<path d="M21.5937 26.5625C22.243 26.2784 22.8698 25.9455 23.4687 25.5664V30.125C23.4687 30.3736 23.3699 30.6121 23.1941 30.7879C23.0183 30.9637 22.7798 31.0625 22.5312 31.0625C22.2825 31.0625 22.0441 30.9637 21.8682 30.7879C21.6924 30.6121 21.5937 30.3736 21.5937 30.125V26.5625ZM14.6679 12.8047C14.5543 13.0262 14.5312 13.2832 14.6033 13.5215C14.6754 13.7597 14.8372 13.9607 15.0546 14.082L20.539 17L22.5312 15.9336L15.9452 12.418C15.7237 12.3044 15.4667 12.2813 15.2285 12.3534C14.9902 12.4256 14.7892 12.5873 14.6679 12.8047ZM30.0077 12.418L15.9452 4.91798C15.8069 4.84887 15.6545 4.8129 15.4999 4.8129C15.3453 4.8129 15.1929 4.84887 15.0546 4.91798L0.992094 12.418C0.843017 12.4998 0.718671 12.6203 0.632061 12.7666C0.54545 12.913 0.499756 13.0799 0.499756 13.25C0.499756 13.4201 0.54545 13.587 0.632061 13.7334C0.718671 13.8798 0.843017 14.0002 0.992094 14.082L3.78116 15.5586V21.3945C3.77939 21.7969 3.91129 22.1885 4.15616 22.5078C5.08194 23.75 8.64444 27.7813 15.4999 27.7813C17.5946 27.7987 19.6699 27.3797 21.5937 26.5508V17.5625L20.539 17L15.4999 19.6836L5.16397 14.1758L3.42959 13.25L15.4999 6.81642L27.5702 13.25L25.8358 14.1758L22.5312 15.9336L22.9765 16.168C23.135 16.2595 23.2649 16.3934 23.3515 16.5547C23.4294 16.6901 23.4699 16.8438 23.4687 17V25.5664C24.7636 24.7518 25.9059 23.7166 26.8437 22.5078C27.0885 22.1885 27.2204 21.7969 27.2187 21.3945V15.5586L30.0077 14.082C30.1568 14.0002 30.2811 13.8798 30.3678 13.7334C30.4544 13.587 30.5001 13.4201 30.5001 13.25C30.5001 13.0799 30.4544 12.913 30.3678 12.7666C30.2811 12.6203 30.1568 12.4998 30.0077 12.418Z" fill="#111739"/>
</g>
</svg>
