<svg width="206" height="190" viewBox="0 0 206 190" fill="none"
  xmlns="http://www.w3.org/2000/svg">
  <path d="M205.606 30.7753C205.197 29.3391 204.17 28.1582 202.804 27.5542C201.35 26.9755 199.722 27.0294 198.311 27.7016C181.452 34.7639 145.638 123.812 140.13 137.713C125.775 142.664 122.011 149.269 115.704 162.274C112.731 168.412 106.307 171.489 101.442 172.992V172.99C99.4949 173.542 98.1683 175.341 98.2205 177.363C98.2708 179.484 99.7303 181.31 101.787 181.828C106.014 183.005 110.378 183.615 114.766 183.64C120.514 183.604 126.21 182.535 131.581 180.484H131.617C131.651 180.469 131.685 180.462 131.719 180.449C146.897 174.802 154.468 154.584 153.837 144.731C161.003 132.565 210.927 46.9817 205.603 30.7754L205.606 30.7753ZM136.074 173.352C136.065 172.697 135.959 172.047 135.759 171.423C135.222 169.92 134.195 168.642 132.845 167.792C131.496 166.942 129.898 166.57 128.31 166.737C126.425 166.877 124.593 166.075 123.416 164.594C122.034 162.678 121.64 160.219 122.359 157.967C126.854 149.492 130.85 145.145 141.531 141.489L149.831 145.515C150.059 152.895 144.998 166.376 136.074 173.352ZM144.225 138.323C146.605 132.337 149.777 124.598 153.423 116.038L163.001 120.668C158.89 128.023 154.819 135.116 151.003 141.605L144.225 138.323Z" fill="#111739"/>
  <path d="M88.4525 0.0415792C51.2672 1.63773 28.1319 16.4826 12.4686 42.9787C-3.14604 69.3902 -3.5252 102.618 8.15289 127.043V127.045C16.1157 143.137 30.1483 155.403 47.1609 161.141C71.6977 169.048 103.75 152.685 100.142 125.927C96.5346 99.1685 112.58 92.2175 133.257 87.323C148.134 83.7982 157.596 73.3423 159.61 58.3121C166.196 9.21455 106.201 -0.720003 88.4488 0.0392376L88.4525 0.0415792ZM45.3175 36.5367C48.7955 35.8213 52.4157 36.5169 55.3813 38.4707C58.3471 40.4246 60.4144 43.4748 61.1295 46.9549C61.8449 50.433 61.1492 54.0531 59.1954 57.0169C57.2416 59.9827 54.1895 62.05 50.7113 62.7651C47.2332 63.4822 43.613 62.7866 40.6492 60.8328C37.6835 58.879 35.6148 55.8269 34.8993 52.3486C34.1839 48.8706 34.8795 45.2504 36.8333 42.2848C38.7871 39.319 41.8392 37.2518 45.3175 36.5367ZM36.1757 106.479C32.6977 107.194 29.0775 106.499 26.1119 104.545C23.1479 102.591 21.0788 99.5389 20.3638 96.0607C19.6484 92.5826 20.344 88.9625 22.2996 85.9968C24.2534 83.031 27.3037 80.9638 30.7838 80.2487C34.2618 79.5333 37.882 80.2289 40.8458 82.1827C43.8116 84.1366 45.8788 87.1887 46.5939 90.6669C47.3093 94.145 46.6137 97.7651 44.6599 100.731C42.7061 103.695 39.654 105.764 36.1757 106.479ZM63.5848 143.905C59.7149 144.702 55.6869 143.929 52.3867 141.756C49.0866 139.582 46.784 136.187 45.9879 132.315C45.1916 128.445 45.9663 124.417 48.1395 121.117C50.3144 117.817 53.7095 115.516 57.5817 114.722C61.4516 113.926 65.4796 114.7 68.7798 116.875C72.0781 119.05 74.3788 122.447 75.1735 126.318C75.968 130.187 75.1933 134.212 73.0201 137.51C70.847 140.808 67.4533 143.107 63.5853 143.905L63.5848 143.905ZM88.5731 44.9325C85.0932 45.6461 81.4748 44.9487 78.511 42.9931C75.5471 41.0375 73.4798 37.9853 72.7666 34.5075C72.053 31.0295 72.7504 27.4093 74.706 24.4455C76.6598 21.4815 79.7119 19.4143 83.1902 18.7011C86.6682 17.9875 90.2884 18.6831 93.2522 20.6369C96.218 22.5925 98.2834 25.6447 98.9985 29.1224C99.7139 32.6005 99.0165 36.2225 97.0609 39.1863C95.1052 42.1521 92.0508 44.2193 88.5731 44.9325ZM127.709 62.7687H127.707C124.229 63.4841 120.609 62.7885 117.645 60.8347C114.679 58.8808 112.612 55.8287 111.897 52.3505C111.182 48.8724 111.877 45.2523 113.831 42.2885C115.783 39.3227 118.835 37.254 122.313 36.5385C125.791 35.8231 129.412 36.5187 132.377 38.4725C135.343 40.4263 137.41 43.4785 138.125 46.9567C138.841 50.4348 138.143 54.0531 136.19 57.0169C134.236 59.9827 131.185 62.0499 127.707 62.765L127.709 62.7687Z" fill="#111739"/>
  <path d="M28.8584 175.75C28.5277 178.205 26.3348 181.913 24.1581 181.62C22.4127 181.329 20.8795 180.294 19.9574 178.784C19.0335 177.272 18.8124 175.437 19.3499 173.751C19.9664 171.351 21.1617 170.185 23.3384 170.48C25.5152 170.773 29.1893 173.286 28.8584 175.75Z" fill="#111739"/>
  <path d="M81.8854 178.376C68.5214 177.229 46.5333 174.578 44.7756 180.479C41.941 189.995 64.2453 191.404 74.8737 187.541C85.504 183.68 88.0472 178.906 81.8854 178.376Z" fill="#111739"/>
</svg>
