<svg width="183" height="191" viewBox="0 0 183 191" fill="none" xmlns="http://www.w3.org/2000/svg">
<path d="M174.884 82.0554C175.739 87.1283 175.477 92.144 174.274 96.8473L179.618 98.7971C181.207 99.3744 182.03 101.141 181.454 102.734C180.879 104.327 179.117 105.152 177.528 104.575L172.247 102.646C171.298 104.764 170.149 106.782 168.82 108.672C167.286 110.853 165.512 112.867 163.526 114.666L166.831 119.411C167.797 120.8 167.458 122.715 166.074 123.683C164.689 124.652 162.778 124.312 161.813 122.924L158.65 118.381C154.842 120.797 150.513 122.521 145.816 123.351C144.479 123.586 143.145 123.744 141.819 123.827V129.418C141.819 131.119 140.443 132.498 138.747 132.498C137.05 132.498 135.674 131.119 135.674 129.418V123.672C129.652 122.993 123.975 120.785 119.129 117.384C111.618 112.113 106.095 103.976 104.379 94.2612L103.901 91.5635C103.374 88.5622 102.034 85.975 100.096 84.0293C98.1696 82.0953 95.6101 80.76 92.6234 80.2356L90.3299 79.833C80.6482 78.1225 72.5472 72.5941 67.2939 65.0697C65.0003 61.7847 63.2511 58.1201 62.1452 54.2248L57.325 55.9841C55.7359 56.5615 53.9739 55.7363 53.3982 54.1432C52.8223 52.5501 53.6454 50.7837 55.2345 50.2065L60.9762 48.1105C60.6547 44.9587 60.749 41.714 61.3077 38.4517L61.3663 38.1236C61.625 36.6953 61.9636 35.3028 62.3795 33.9489L57.1777 32.0521C55.5886 31.4747 54.7655 29.7083 55.3415 28.1153C55.9173 26.5222 57.6793 25.697 59.2683 26.2744L64.6859 28.2514C66.8823 23.9362 69.9073 20.1656 73.5031 17.1172L70.2535 12.4484C69.2875 11.0602 69.6262 9.14474 71.0109 8.17644C72.3956 7.20814 74.3062 7.54753 75.2721 8.93573L78.4931 13.5616C82.3043 11.3081 86.5286 9.75359 90.9599 9.04723V3.08014C90.9599 1.37962 92.336 0 94.0323 0C95.7285 0 97.1046 1.37962 97.1046 3.08014V8.61996C98.818 8.65434 100.547 8.81623 102.28 9.11423L102.549 9.15721C121.321 11.8792 138.08 20.6597 150.802 33.462C162.07 44.7998 170.177 59.2965 173.721 75.5433L178.889 73.6565C180.479 73.0792 182.241 73.9044 182.816 75.4974C183.392 77.0906 182.569 78.857 180.98 79.4342L174.827 81.6805L174.882 82.0559L174.884 82.0554ZM63.3386 141.099C65.5722 141.099 67.5998 142.009 69.0632 143.476C70.5265 144.943 71.4339 146.976 71.4339 149.215C71.4339 151.457 70.5265 153.488 69.0632 154.957C67.5998 156.424 65.572 157.333 63.3386 157.333C61.1022 157.333 59.076 156.424 57.6112 154.957C56.1479 153.49 55.2404 151.457 55.2404 149.215C55.2404 146.976 56.1479 144.943 57.6112 143.476C59.0745 142.009 61.1023 141.099 63.3386 141.099ZM64.7176 147.832C64.3661 147.48 63.8759 147.259 63.3386 147.259C62.8014 147.259 62.3083 147.48 61.9568 147.832C61.6053 148.185 61.3852 148.676 61.3852 149.215C61.3852 149.753 61.6053 150.248 61.9568 150.6C62.3083 150.953 62.8014 151.173 63.3386 151.173C63.8759 151.173 64.3675 150.953 64.7176 150.6C65.0692 150.248 65.2893 149.753 65.2893 149.215C65.2893 148.676 65.0692 148.183 64.7176 147.832ZM51.9249 113.978C55.4989 113.978 58.7414 115.433 61.0835 117.781L61.2621 117.975C63.4985 120.311 64.8775 123.482 64.8775 126.96C64.8775 130.546 63.4256 133.794 61.0835 136.142C58.7414 138.49 55.4988 139.945 51.925 139.945C48.351 139.945 45.1084 138.49 42.7664 136.142C40.4242 133.794 38.9724 130.543 38.9724 126.96C38.9724 123.377 40.4243 120.129 42.7664 117.781C45.1086 115.433 48.3511 113.978 51.9249 113.978ZM56.7378 122.138C55.506 120.903 53.8026 120.139 51.9249 120.139C50.0472 120.139 48.3438 120.903 47.1121 122.138C45.8802 123.373 45.1186 125.078 45.1186 126.96C45.1186 128.842 45.8802 130.55 47.1121 131.785C48.3439 133.02 50.0473 133.783 51.9249 133.783C53.8027 133.783 55.5061 133.02 56.7378 131.785C57.9696 130.55 58.7313 128.845 58.7313 126.96C58.7313 125.136 58.0253 123.482 56.8778 122.268L56.7378 122.138ZM107.339 132.573C109.036 132.573 110.412 133.953 110.412 135.653C110.412 137.354 109.036 138.733 107.339 138.733H102.658C101.966 149.574 97.6563 159.432 90.9272 167.108L94.2425 170.432C95.44 171.632 95.44 173.588 94.2425 174.788C93.045 175.989 91.0944 175.989 89.8968 174.788L86.5815 171.465C78.9206 178.215 69.0904 182.533 58.2783 183.228V187.92C58.2783 189.62 56.9022 191 55.2059 191C53.5097 191 52.1335 189.62 52.1335 187.92V183.228C41.3199 182.535 31.4842 178.211 23.8303 171.465L20.515 174.788C19.3175 175.989 17.3668 175.989 16.1693 174.788C14.9718 173.588 14.9718 171.632 16.1693 170.432L19.4846 167.108C12.7512 159.428 8.44095 149.57 7.74953 138.733H3.07239C1.37614 138.733 0 137.354 0 135.653C0 133.953 1.37614 132.573 3.07239 132.573H7.75246C8.44409 121.73 12.7541 111.872 19.4861 104.199L16.1708 100.875C14.9732 99.6743 14.9732 97.7187 16.1708 96.5181C17.3683 95.3176 19.3189 95.3176 20.5165 96.5181L23.8318 99.8418C31.4926 93.0928 41.3258 88.7747 52.135 88.0815V83.3882C52.135 81.6876 53.5111 80.308 55.2074 80.308C56.9036 80.308 58.2798 81.6876 58.2798 83.3882V88.0815C69.0933 88.7749 78.9265 93.0987 86.58 99.8448L89.8968 96.5196C91.0943 95.3191 93.045 95.3191 94.2425 96.5196C95.44 97.7202 95.44 99.6757 94.2425 100.876L90.9272 104.2C97.6606 111.873 101.968 121.731 102.661 132.575H107.341L107.339 132.573ZM25.7666 164.857L25.9266 165.005L26.0738 165.165C33.5507 172.579 43.8466 177.165 55.2045 177.165C66.5694 177.165 76.8657 172.575 84.3451 165.153L84.4837 165.005L84.6309 164.869C92.0331 157.371 96.6104 147.047 96.6104 135.653C96.6104 124.24 92.0105 113.901 84.5793 106.396L84.4822 106.302L84.3878 106.204C76.9084 98.7548 66.5935 94.1428 55.2045 94.1428C43.8396 94.1428 33.5404 98.7331 26.0624 106.153L25.9267 106.3L25.7795 106.439C18.3758 113.937 13.7971 124.26 13.7971 135.653C13.7971 147.04 18.3728 157.362 25.7666 164.857ZM55.2046 99.0727C65.2777 99.0727 74.4048 103.17 81.0055 109.787C87.6062 116.405 91.6932 125.555 91.6932 135.653C91.6932 145.755 87.6062 154.902 81.0055 161.52C74.4048 168.137 65.2777 172.234 55.2046 172.234C45.1285 172.234 36.0044 168.137 29.4037 161.52C22.803 154.902 18.716 145.755 18.716 135.653C18.716 125.555 22.803 116.405 29.4037 109.787C36.0044 103.17 45.1315 99.0727 55.2046 99.0727ZM76.6598 114.144C71.1694 108.64 63.5814 105.235 55.2046 105.235C46.8278 105.235 39.2394 108.64 33.7494 114.144C28.259 119.648 24.8623 127.256 24.8623 135.653C24.8623 144.054 28.2591 151.659 33.7494 157.163C39.2398 162.667 46.8249 166.072 55.2046 166.072C63.5814 166.072 71.1698 162.667 76.6598 157.163C82.1502 151.659 85.5469 144.054 85.5469 135.653C85.5469 127.256 82.1501 119.648 76.6598 114.144ZM149.771 92.7319C148.075 92.7319 146.699 91.3523 146.699 89.6518C146.699 87.9513 148.075 86.5717 149.771 86.5717H149.838C151.534 86.5717 152.911 87.9513 152.911 89.6518C152.911 91.3523 151.534 92.7319 149.838 92.7319H149.771ZM118.483 69.7255C116.786 69.7255 115.41 68.3459 115.41 66.6454C115.41 64.9448 116.786 63.5652 118.483 63.5652H118.548C120.245 63.5652 121.621 64.9448 121.621 66.6454C121.621 68.3459 120.245 69.7255 118.548 69.7255H118.483ZM109.653 40.4828C107.956 40.4828 106.58 39.1031 106.58 37.4026C106.58 35.7021 107.956 34.3225 109.653 34.3225H109.718C111.415 34.3225 112.791 35.7021 112.791 37.4026C112.791 39.1031 111.415 40.4828 109.718 40.4828H109.653ZM123.007 50.0884C121.331 49.8635 120.155 48.3148 120.379 46.6343C120.603 44.9538 122.148 43.7748 123.824 43.9997C130.186 44.8607 131.391 49.9352 132.571 54.9279L132.598 55.0539C133.014 56.8289 133.44 58.5839 134.099 59.6655C135.185 61.4563 136.192 61.6841 137.15 61.899C140.022 62.5436 142.756 63.1625 145.209 70.3402C145.758 71.949 144.905 73.7026 143.3 74.2527C141.695 74.8028 139.946 73.9475 139.398 72.3387C138.05 68.3961 136.954 68.1467 135.805 67.8903C133.599 67.3903 131.297 66.8717 128.867 62.8662C127.695 60.9421 127.154 58.713 126.626 56.4667L126.595 56.3478C125.896 53.388 125.179 50.3807 123.007 50.0873L123.007 50.0884ZM126.392 88.5645C126.246 86.8783 127.495 85.3898 129.177 85.2437C130.859 85.0976 132.344 86.3497 132.49 88.0359C132.598 89.2565 132.976 90.447 133.579 91.5215C134.176 92.5888 134.999 93.5343 135.994 94.2721C136.986 95.0071 138.123 95.5171 139.316 95.7764C140.514 96.0386 141.767 96.0486 142.98 95.7936C144.635 95.4498 146.262 96.5171 146.604 98.1761C146.947 99.835 145.883 101.465 144.228 101.809C142.154 102.246 140.037 102.232 138.019 101.792C136.001 101.354 134.063 100.477 132.344 99.2061C130.636 97.9368 129.234 96.3323 128.225 94.5285C127.217 92.7292 126.581 90.6934 126.392 88.5629L126.392 88.5645ZM89.9208 47.7595C88.6161 48.8411 86.6783 48.6592 85.5996 47.3526C84.5207 46.0447 84.7021 44.102 86.0054 43.0205C87.353 41.9045 88.9378 41.1424 90.5999 40.7813C92.2547 40.4217 94.0038 40.4533 95.6915 40.9045C97.3806 41.3587 98.9125 42.2125 100.17 43.3572C101.419 44.4947 102.411 45.946 103.022 47.5921C103.613 49.1809 102.807 50.9487 101.222 51.542C99.637 52.1337 97.8736 51.3257 97.2818 49.7369C97.0203 49.0363 96.5873 48.4046 96.04 47.9074C95.4984 47.4132 94.8324 47.0421 94.1065 46.8473C93.3777 46.6539 92.6189 46.6381 91.8943 46.7957C91.1784 46.9505 90.4953 47.2785 89.918 47.7585L89.9208 47.7595ZM101.061 19.203C117.648 21.5969 132.457 29.3617 143.684 40.6852C154.916 52.0117 162.572 66.911 164.864 83.5697C166.089 90.5153 164.358 97.3486 160.586 102.748C156.816 108.148 150.997 112.119 144.059 113.344L144.01 113.351C137.097 114.559 130.298 112.827 124.929 109.058C119.545 105.276 115.586 99.4448 114.359 92.4864L113.882 89.7859C112.988 84.6943 110.644 80.2444 107.267 76.8593L107.12 76.7017C103.769 73.3981 99.3889 71.1102 94.373 70.2248L92.1208 69.8294C85.1887 68.6017 79.364 64.6303 75.5912 59.2266C71.8242 53.8313 70.0938 47.0005 71.3153 40.0538C72.5371 33.0983 76.4984 27.2633 81.8846 23.4824C87.2677 19.703 94.0843 17.9683 101.015 19.1918L101.061 19.2018L101.061 19.203ZM139.338 45.0177C129.025 34.6154 115.418 27.4865 100.165 25.286L99.9593 25.2573C94.6705 24.3232 89.4801 25.6427 85.3876 28.5151C81.3005 31.3818 78.2923 35.8172 77.3634 41.1124C76.4289 46.4145 77.7464 51.6165 80.6088 55.715C83.4711 59.8153 87.8998 62.8322 93.1743 63.7664L95.4264 64.1618C101.688 65.2677 107.193 68.1575 111.433 72.3393L111.612 72.504C115.866 76.769 118.81 82.3532 119.93 88.7299L120.429 91.5436C121.385 96.7886 124.376 101.179 128.431 104.026C132.49 106.874 137.632 108.191 142.878 107.298L143.119 107.257C148.347 106.304 152.727 103.303 155.565 99.2339C158.432 95.1296 159.75 89.9232 158.818 84.6254L158.806 84.5065C156.72 69.1659 149.679 55.4413 139.337 45.0145L139.338 45.0177ZM163.806 105.132C168.169 98.929 170.191 91.068 168.835 83.0453L168.823 82.9622C166.397 65.4097 158.313 49.7123 146.46 37.7854C134.645 25.896 119.067 17.7431 101.61 15.2286L101.385 15.1971C93.5214 13.8046 85.7274 15.816 79.5526 20.1868C73.385 24.5479 68.8191 31.2727 67.396 39.3038L67.3817 39.3869C65.9784 47.4313 67.9719 55.3249 72.3175 61.5513C76.6603 67.7704 83.3711 72.3463 91.3894 73.7631L93.6829 74.1657C97.9372 74.9106 101.624 76.8576 104.446 79.6912C107.266 82.5221 109.204 86.2341 109.957 90.5005L110.434 93.1982C111.857 101.25 116.424 107.989 122.639 112.347C128.852 116.706 136.731 118.7 144.769 117.281C152.761 115.87 159.456 111.321 163.809 105.131L163.806 105.132Z" fill="#111739"/>
</svg>
