<svg width="189" height="189" viewBox="0 0 189 189" fill="none" xmlns="http://www.w3.org/2000/svg">
<path d="M185.579 57.7264L189 54.52L188.359 46.6083L142.392 0.641285L134.48 0L131.273 3.42114L131.915 11.3314L177.668 57.0845L185.579 57.7264Z" fill="#111739"/>
<path d="M180.02 78.2512L183.226 75.0434L182.585 66.9201L122.08 6.41472L113.956 5.77344L110.749 8.97983L111.39 17.1046L171.895 77.61L180.02 78.2512Z" fill="#111739"/>
<path d="M163.973 15.7167L173.196 6.49426L182.418 15.7167L173.196 24.9391L163.973 15.7167Z" fill="#111739"/>
<path d="M3.42114 131.274L0 134.48L0.641283 142.392L46.6083 188.359L54.52 189L57.7264 185.579L57.0851 177.669L11.3319 131.915L3.42114 131.274Z" fill="#111739"/>
<path d="M8.97983 110.749L5.77344 113.957L6.41472 122.08L66.9201 182.585L75.0434 183.227L78.2512 180.02L77.6099 171.895L17.1046 111.39L8.97983 110.749Z" fill="#111739"/>
<path d="M6.49072 173.32L15.7131 164.097L24.9356 173.32L15.7131 182.542L6.49072 173.32Z" fill="#111739"/>
<path d="M46.605 133.347L133.683 46.269L142.905 55.4915L55.8274 142.569L46.605 133.347Z" fill="#111739"/>
</svg>
