<svg width="187" height="182" viewBox="0 0 187 182" fill="none" xmlns="http://www.w3.org/2000/svg">
<path d="M37.9418 123.729C37.682 123.731 37.4249 123.681 37.1841 123.582C36.7228 123.39 36.3575 123.027 36.1708 122.573C35.9841 122.119 35.9895 121.611 36.1883 121.162C38.556 115.794 38.1691 112.427 29.6538 105.449C24.0325 100.848 23.2137 96.0073 23.9418 92.5139L21.0654 93.21C20.9897 93.2284 20.9125 93.2429 20.8354 93.2508C17.9293 93.5824 15.77 92.9297 14.3954 91.3061C12.0237 88.4732 13.4524 84.0152 13.6377 83.518L17.9266 70.6234C16.1881 68.4945 14.7445 65.3879 14.5632 64.9945C10.4908 55.8392 7.13817 42.5209 14.2602 30.9804L14.2588 30.9778C16.6941 27.0145 20.0941 23.695 24.161 21.3108C25.2974 18.4082 30.3315 8.0767 45.421 3.88473C52.2167 1.99526 60.7335 1.03739 68.2029 1.30581C78.6311 1.69662 87.1441 4.25316 93.5502 8.95848C101.933 15.1072 106.18 24.6229 106.18 37.2308C106.18 38.2479 105.332 39.0729 104.286 39.0729C103.24 39.0729 102.392 38.2479 102.392 37.2308C102.392 25.8426 98.6493 17.3364 91.2692 11.9058C78.0293 2.21259 56.1701 4.72811 46.4619 7.42956C31.2713 11.6478 27.6831 22.6517 27.5207 23.1162C27.3705 23.607 27.0188 24.0162 26.5466 24.2438C22.7638 26.3386 19.614 29.3635 17.413 33.0162C12.4584 41.1845 12.667 51.4373 18.034 63.4988C18.5116 64.5409 20.0648 67.5776 21.4015 68.8778H21.4028C21.902 69.366 22.0793 70.0831 21.8641 70.7383L17.2386 84.6646C16.9085 85.6488 16.5081 87.9804 17.3523 88.9829C17.9354 89.679 19.2464 89.7198 20.2773 89.6013L26.6644 88.0539C27.4382 87.8684 28.2486 88.1737 28.6911 88.8171C29.1348 89.4618 29.1159 90.3066 28.6451 90.9315C28.2432 91.4881 24.8231 96.6565 32.1032 102.618C41.2177 110.083 43.0593 114.938 39.6796 122.601H39.6809C39.3873 123.282 38.7028 123.729 37.9411 123.731L37.9418 123.729Z" fill="#111739"/>
<path d="M75.5866 85.2925C75.4202 85.2925 75.2538 85.2701 75.0941 85.2254C74.6084 85.0991 74.1958 84.7899 73.9441 84.3662C73.6939 83.9425 73.6262 83.4399 73.7574 82.9675C74.0334 81.9649 74.258 80.6175 73.7574 79.8873C73.0269 78.8373 70.5456 78.561 68.1428 78.2926C66.4584 78.1544 64.7902 77.8689 63.157 77.4413C61.2169 76.8663 58.8048 75.9386 57.3529 73.8569C55.9026 71.7754 55.7388 68.7767 56.9741 66.0793C58.0537 63.7069 59.8531 62.0268 61.5916 60.3793C63.2544 58.8214 64.8224 57.3477 65.5272 55.4426C66.7624 52.1268 66.1373 48.0045 62.5616 46.5783C58.9858 45.1521 54.0462 45.5138 50.6558 46.3388C45.4768 47.5836 34.9997 47.5809 32.3737 38.6495C29.1997 27.9154 36.5299 22.6799 36.8409 22.4734C37.6838 21.9813 38.7742 22.1997 39.3492 22.976C39.9256 23.751 39.7944 24.826 39.0489 25.4497C38.7986 25.63 33.6046 29.5022 35.9953 37.6366C38.2682 45.4061 49.254 42.8761 49.7167 42.7616C51.6406 42.2932 58.3727 40.9379 63.9752 43.1708C66.6229 44.2155 68.6267 46.3918 69.4032 49.0655C70.1257 51.5799 70.0093 54.2511 69.0704 56.6956C68.0666 59.4074 66.1007 61.2497 64.2025 63.0363C62.6574 64.4876 61.1949 65.8586 60.4141 67.5758C59.7214 69.0969 59.7471 70.7482 60.4709 71.7904C61.2583 72.922 62.9035 73.5219 64.2593 73.9233C65.6731 74.2798 67.1153 74.518 68.5696 74.6338C71.8166 75.0022 75.1759 75.3706 76.9035 77.8206C77.975 79.3535 78.1496 81.3534 77.4338 83.9285V83.9298C77.2092 84.7403 76.4489 85.3009 75.5857 85.293L75.5866 85.2925Z" fill="#111739"/>
<path d="M26.9278 181.999H1.92543C1.41536 181.999 0.926972 181.799 0.569781 181.444C0.212625 181.089 0.0191554 180.608 0.0313123 180.112C0.0313123 179.939 0.448006 162.451 0.0313123 151.556C-0.404327 140.135 3.8467 131.727 4.02785 131.375C4.12255 131.194 13.328 113.281 15.8173 108.035C18.4961 102.395 24.0078 100.395 24.8861 100.107L26.9277 99.2526C27.8896 98.846 29.0098 99.2749 29.4279 100.21C29.846 101.146 29.4049 102.235 28.4429 102.642L26.3026 103.526C26.2417 103.551 26.1795 103.574 26.1173 103.592C26.0753 103.592 21.3903 105.095 19.2606 109.579C16.7455 114.88 7.80121 132.284 7.4223 133.021V133.022C4.81792 138.814 3.58682 145.102 3.81957 151.421C4.16051 160.296 3.95621 173.46 3.8615 178.315H24.7495L21.2646 154.257C21.1888 153.767 21.3214 153.267 21.6299 152.871C21.9383 152.476 22.3983 152.218 22.9043 152.157C23.3102 152.102 33.2003 150.544 31.8592 134.238H31.8606C31.8281 133.864 31.9147 133.489 32.1095 133.166C32.9199 131.798 34.212 129.094 34.212 127.668C34.212 127.03 34.5529 126.437 35.1117 126.101C35.6704 125.766 36.3685 125.735 36.9557 126.022C39.8009 127.274 42.8464 128.042 45.9594 128.295C46.8984 128.367 47.6411 129.099 47.702 130.012L48.5462 142.321H48.5476C48.5584 142.422 48.5584 142.525 48.5476 142.626C48.5422 143.106 48.7153 143.571 49.036 143.934C49.657 144.571 50.8394 144.704 51.7256 144.704C55.1769 144.704 55.6733 141.756 55.7412 141.083C55.7831 140.301 56.3933 127.82 55.4571 122.713C54.3883 122.024 51.2333 120.359 45.3007 120.071V120.072C44.2549 120.021 43.4485 119.155 43.5013 118.138C43.5541 117.121 44.4443 116.337 45.4901 116.388C54.5143 116.826 58.3023 120.169 58.4606 120.312C58.7352 120.559 58.9274 120.881 59.014 121.237C60.2871 126.505 59.5551 140.704 59.5254 141.305V141.304C59.524 141.319 59.524 141.337 59.5254 141.352C59.3319 143.784 57.4527 148.385 51.7297 148.385C49.3093 148.385 47.453 147.712 46.2096 146.377C45.2314 145.294 44.716 143.891 44.766 142.45L44.0354 131.795C41.8261 131.497 39.6548 130.975 37.5576 130.237C37.076 131.714 36.4496 133.142 35.6865 134.502C36.0654 140.092 35.3916 147.511 30.3372 152.264C28.8895 153.631 27.1578 154.678 25.2569 155.336L28.8219 179.899C28.899 180.431 28.7339 180.969 28.37 181.372C28.0061 181.776 27.4798 182.004 26.9278 181.999Z" fill="#111739"/>
<path d="M30.7965 72.5969C30.0551 72.6022 29.315 72.5469 28.5845 72.4351C27.5616 72.2469 26.8865 71.293 27.0719 70.2969C27.2572 69.3009 28.2327 68.6377 29.2582 68.8101C29.3042 68.8101 33.6378 69.5206 36.2514 67.1746V67.1733C37.0253 66.5325 38.182 66.5983 38.872 67.3259C39.562 68.0522 39.539 69.1785 38.8192 69.8785C36.2811 72.1627 32.9598 72.5969 30.7965 72.5969Z" fill="#111739"/>
<path d="M19.2597 156.477C16.9935 156.481 14.7627 155.933 12.7698 154.882C11.8836 154.383 11.5656 153.29 12.0514 152.414C12.537 151.537 13.6505 151.195 14.5665 151.64C16.976 152.916 19.8254 153.152 22.4231 152.293C23.3904 151.904 24.4985 152.353 24.8962 153.294C25.2953 154.235 24.834 155.312 23.8666 155.7C22.3919 156.229 20.8305 156.493 19.2597 156.477Z" fill="#111739"/>
<path d="M116.442 75.2244H116.374C115.327 75.2073 114.494 74.3691 114.511 73.3507C114.53 72.3336 115.392 71.5231 116.438 71.5402C116.465 71.5402 121.154 71.5402 124.06 68.5665C125.868 66.7244 126.67 64.0165 126.447 60.5575C126.291 58.122 125.466 56.2695 123.989 55.0495C121.404 52.9126 117.549 53.2074 117.496 53.2074H117.495C116.454 53.31 115.526 52.5718 115.42 51.5587C115.316 50.5469 116.075 49.6442 117.116 49.5416C117.339 49.5192 122.601 49.0548 126.439 52.2271C128.712 54.1205 130 56.8402 130.227 60.3099C130.519 64.8519 129.36 68.4887 126.78 71.1151C122.886 75.0992 117.158 75.2244 116.442 75.2244Z" fill="#111739"/>
<path d="M184.136 181.999H39.1331C38.086 181.999 37.239 181.174 37.239 180.157V172.339C37.239 148.885 45.6529 144.022 46.6109 143.543L48.3346 146.822H48.3724C48.3535 146.822 46.5541 147.861 44.7586 151.442C43.058 154.827 41.0274 161.209 41.0274 172.357V178.315H182.245L182.302 109.075L182.245 78.1052C182.245 77.0881 183.093 76.2631 184.139 76.2631C184.641 76.2631 185.123 76.4565 185.478 76.8025C185.834 77.1486 186.033 77.617 186.033 78.1052L186.09 109.075L186.033 180.158C186.033 180.646 185.834 181.114 185.478 181.461C185.123 181.807 184.641 182 184.139 182L184.136 181.999Z" fill="#111739"/>
<path d="M139.156 89.8937C132.068 89.8937 127.617 87.5069 127.347 87.3555C111.02 78.211 111.312 61.2531 111.334 60.5347H111.335C111.347 60.1136 111.507 59.7084 111.79 59.3886C114.631 56.161 115.976 51.873 115.298 48.1927C114.738 45.1717 112.893 42.7322 109.952 41.1454C102.721 37.2401 97.1064 41.8046 97.0496 41.8493V41.848C96.254 42.4967 95.0702 42.4032 94.3937 41.6361C93.7186 40.8704 93.8025 39.7177 94.5832 39.0519C94.8943 38.7941 102.281 32.7887 111.793 37.9243C115.759 40.069 118.26 43.3912 119.024 47.5441C119.872 52.1453 118.418 57.2192 115.126 61.2414C115.213 64.1887 116.357 76.9506 129.226 84.1569C129.294 84.1898 137.56 88.5449 149.376 84.3885V84.3898C150.361 84.0438 151.447 84.5398 151.803 85.4964C152.157 86.4543 151.649 87.5109 150.664 87.8569C146.98 89.1819 143.085 89.8713 139.156 89.8937Z" fill="#111739"/>
<path d="M87.7226 181.999C86.7336 182.002 85.9083 181.264 85.8285 180.304C84.8625 168.67 88.5858 156.552 88.7414 156.044C89.0458 155.069 90.1038 154.519 91.1063 154.814C92.1074 155.109 92.6743 156.138 92.3713 157.113C92.3334 157.231 88.6968 169.086 89.6018 180.01C89.6897 181.022 88.9186 181.911 87.8782 181.999L87.7226 181.999Z" fill="#111739"/>
<path d="M13.7248 59.1773C13.0199 59.1773 12.3732 58.7957 12.0471 58.1865C10.9905 56.2195 10.9445 52.4616 12.9374 49.3775C14.5392 46.8946 17.9487 43.9881 25.0936 44.2198C28.0944 44.3159 30.1589 43.6777 31.2344 42.3303C32.8822 40.2593 31.9433 36.9331 31.9311 36.9001C31.6375 35.9238 32.2125 34.9002 33.2164 34.6133C34.2216 34.3278 35.2742 34.8883 35.5678 35.8646C35.6327 36.0712 37.0831 41.0223 34.227 44.5857C32.3667 46.9212 29.2538 48.0383 24.9729 47.9015C20.692 47.7647 17.6888 48.9594 16.1465 51.3464C14.8098 53.4134 15.0101 55.7674 15.3889 56.5041H15.3875C15.696 57.0751 15.673 57.7606 15.3307 58.3119C14.987 58.8632 14.3728 59.2001 13.7099 59.2001L13.7248 59.1773Z" fill="#111739"/>
<path d="M26.5468 66.315C25.708 66.3163 24.9666 65.7808 24.7271 64.9992C24.4877 64.2176 24.8056 63.3742 25.5091 62.9295C25.888 62.6821 35.2111 56.8872 44.0254 60.969C44.5151 61.1558 44.902 61.5321 45.0955 62.0084C45.2876 62.4848 45.2687 63.0163 45.0428 63.4782C44.8155 63.94 44.4015 64.2887 43.8995 64.4413C43.3989 64.5939 42.8537 64.5374 42.3964 64.2847C35.5207 61.1019 27.6523 65.9611 27.5737 66.0084V66.0097C27.2693 66.2071 26.9121 66.3123 26.5468 66.315Z" fill="#111739"/>
<path d="M159.137 53.4207C158.635 53.4562 158.138 53.2957 157.758 52.9746C157.376 52.6549 157.142 52.1996 157.106 51.7115C157.031 50.6944 157.817 49.8102 158.863 49.7365C172.414 47.8207 182.245 38.2088 182.245 26.8947C182.245 14.0961 169.331 3.68442 153.454 3.68442C137.578 3.68442 124.664 14.0961 124.664 26.8947C124.664 35.9025 131.228 44.1776 141.385 47.9681C142.361 48.3325 142.85 49.3983 142.476 50.3483C142.102 51.2983 141.006 51.7733 140.029 51.4088C128.391 47.0653 120.875 37.4418 120.875 26.8946C120.875 12.0659 135.49 0 153.454 0C171.418 0 186.032 12.0656 186.032 26.8946C186.032 40.055 174.838 51.2104 159.416 53.3945C159.324 53.4116 159.229 53.4195 159.136 53.4208L159.137 53.4207Z" fill="#111739"/>
<path d="M66.9762 138.847C64.0552 138.847 61.6199 137.678 60.0627 135.512C57.6044 132.09 57.6613 126.715 60.2102 121.144C61.1085 119.177 61.1951 117.615 60.4713 116.355C59.2293 114.218 55.675 113.076 52.7664 112.722C47.2168 112.048 44.0536 109.465 43.1147 97.7641C42.8644 94.6221 41.9403 92.5509 40.3723 91.6195C38.0993 90.2708 34.947 91.5274 34.9172 91.5419H34.9159C33.954 91.9405 32.8405 91.5063 32.4305 90.5695C32.0206 89.634 32.4684 88.5511 33.4317 88.1524C33.6319 88.0682 38.3793 86.1366 42.3191 88.4577C45.0046 90.0379 46.5428 93.0734 46.8919 97.484C47.7551 108.4 50.415 108.725 53.237 109.067C55.6155 109.354 61.4047 110.467 63.7682 114.546C65.1049 116.841 65.071 119.56 63.6694 122.625C61.7266 126.884 61.5291 131.098 63.1688 133.397C64.0888 134.678 65.5324 135.265 67.4605 135.139V135.142C68.5063 135.074 69.41 135.844 69.479 136.861C69.548 137.878 68.7566 138.759 67.7107 138.826C67.4604 138.84 67.2184 138.847 66.9762 138.847Z" fill="#111739"/>
<path d="M99.0932 181.999C98.2531 181.999 97.5144 181.461 97.2776 180.678C97.0408 179.894 97.3615 179.053 98.0664 178.61C112.053 169.841 123.349 159.083 131.638 146.676C138.301 136.649 143.068 125.544 145.711 113.886C150.333 93.7628 147.454 78.2116 147.424 78.0567H147.423C147.239 77.0883 147.869 76.1501 148.856 75.9264C171.964 70.6845 184.253 76.1883 184.765 76.4278C185.617 76.9093 185.948 77.9462 185.524 78.8119C185.101 79.6764 184.066 80.0817 183.144 79.7435C183.031 79.6922 172.015 74.8516 151.429 79.1317C152.077 83.8659 153.323 97.5528 149.41 114.675V114.676C146.667 126.756 141.725 138.263 134.818 148.65C126.233 161.516 114.562 172.626 100.12 181.675C99.8173 181.876 99.4601 181.988 99.0935 181.996L99.0932 181.999Z" fill="#111739"/>
<path d="M149.286 63.7347C142.813 63.7347 137.543 59.273 137.543 53.7875C137.552 51.5507 138.412 49.3968 139.957 47.7375C140.284 47.3599 140.755 47.1257 141.262 47.0889C141.771 47.052 142.271 47.2152 142.654 47.5428C143.036 47.8691 143.267 48.3323 143.294 48.8257C143.323 49.3205 143.144 49.8046 142.8 50.1691C141.87 51.1586 141.346 52.4467 141.331 53.7875C141.331 57.2401 144.9 60.0507 149.287 60.0507C153.673 60.0507 157.242 57.2401 157.242 53.7875C157.288 52.6901 156.985 51.6059 156.375 50.6822C155.836 49.8085 156.128 48.677 157.025 48.1546C157.924 47.6309 159.087 47.9151 159.624 48.7875C160.59 50.2822 161.08 52.023 161.03 53.7875C161.03 59.273 155.76 63.7347 149.287 63.7347H149.286Z" fill="#111739"/>
<path d="M137.923 78.303C133.536 78.303 129.967 75.2372 129.967 71.4729C129.967 67.7071 133.536 64.6428 137.923 64.6428C142.309 64.6428 145.878 67.7086 145.878 71.4729C145.878 75.2388 142.309 78.303 137.923 78.303ZM137.923 68.3268C135.623 68.3268 133.756 69.7374 133.756 71.4729C133.756 73.2084 135.623 74.6189 137.923 74.6189C140.223 74.6189 142.09 73.2084 142.09 71.4729C142.09 69.7374 140.223 68.3268 137.923 68.3268Z" fill="#111739"/>
<path d="M164.585 35.3661C162.07 35.3806 159.63 34.5319 157.694 32.9714C157.645 32.9345 157.603 32.8937 157.557 32.853L153.451 28.7819L149.337 32.857C149.295 32.8978 149.253 32.9386 149.209 32.9754C147.271 34.5333 144.832 35.3793 142.318 35.3662C136.669 35.3662 132.09 31.2359 132.09 26.1557C132.09 21.0754 136.685 16.9451 142.318 16.9451C144.964 16.9254 147.524 17.8649 149.497 19.5832L149.577 19.6569L153.47 23.5252L157.694 19.3501C157.745 19.3001 157.799 19.2514 157.856 19.2066C159.769 17.7303 162.142 16.933 164.585 16.9448C170.233 16.9448 174.813 21.0752 174.813 26.1554C174.813 31.2356 170.233 35.3661 164.585 35.3661ZM160.198 30.2084C161.442 31.1768 162.992 31.6979 164.585 31.6821C168.142 31.6821 171.025 29.2032 171.025 26.1559C171.025 23.1086 168.127 20.6297 164.585 20.6297C163.042 20.6179 161.539 21.1047 160.312 22.0152L156.122 26.156L160.198 30.2084ZM142.318 20.6294C138.761 20.6294 135.878 23.1083 135.878 26.1556C135.878 29.2028 138.776 31.6818 142.318 31.6818C143.911 31.6975 145.461 31.1765 146.704 30.2081L150.8 26.1556L146.898 22.2832C145.631 21.2043 144.001 20.6148 142.318 20.6293L142.318 20.6294Z" fill="#111739"/>
<path d="M128.706 181.999C127.873 181.999 127.137 181.47 126.893 180.694C126.65 179.919 126.957 179.081 127.648 178.628C143.824 168.062 151.211 147.707 151.282 147.505H151.284C151.447 147.042 151.792 146.663 152.244 146.448C152.696 146.234 153.217 146.203 153.692 146.363C154.682 146.694 155.207 147.743 154.866 148.705C154.552 149.585 147.01 170.419 129.759 181.686C129.449 181.891 129.081 182 128.706 181.999Z" fill="#111739"/>
<path d="M82.7178 149.791C82.0427 149.791 81.419 149.442 81.0794 148.873C80.7412 148.305 80.7385 147.605 81.0727 147.035C82.6826 144.295 83.0994 141.402 82.2091 139.096C81.3189 136.789 79.3071 135.144 76.175 134.075C68.5189 131.47 69.735 124.007 70.1139 121.549L70.1666 121.213C70.9581 116.303 71.644 112.062 68.3063 108.378C66.7491 106.665 64.8969 106.145 62.7336 105.545C61.1087 105.092 59.2631 104.579 57.5019 103.474C53.7856 101.145 53.6907 96.9898 53.6041 93.328C53.4945 88.5385 53.1455 86.674 49.8767 86.1806C48.8539 86.0135 48.1598 85.0766 48.3195 84.0793C48.4791 83.0832 49.4343 82.3964 50.4612 82.5398C57.1703 83.5569 57.2988 89.1715 57.3937 93.2422C57.4776 96.8895 57.667 99.1922 59.553 100.375C60.8451 101.186 62.2697 101.583 63.7809 102.004C66.1593 102.667 68.8612 103.419 71.1488 105.942C75.6649 110.924 74.7747 116.446 73.9101 121.784L73.8574 122.116C73.0578 127.071 74.0576 129.447 77.4224 130.589C82.7257 132.39 84.8744 135.504 85.7562 137.799C87.0361 141.134 86.5139 145.168 84.3546 148.852L84.3532 148.851C84.0204 149.427 83.3967 149.786 82.7175 149.79L82.7178 149.791Z" fill="#111739"/>
<path d="M82.1741 108.171C82.0604 108.169 81.9454 108.16 81.8331 108.14C80.8062 107.955 80.1298 106.996 80.3178 105.997C80.5559 104.718 80.8942 101.455 78.8553 98.8391C77.3103 96.8536 74.7261 95.6786 71.176 95.3498C67.4905 95.0077 64.8984 93.6998 63.4777 91.4552C61.3103 88.0329 62.9325 83.8696 63.0042 83.6961H63.0055C63.383 82.7475 64.4789 82.2751 65.4543 82.6409C66.4311 83.008 66.9168 84.0738 66.5407 85.0224C66.5136 85.0882 65.5368 87.7014 66.7152 89.5395C67.4729 90.7329 69.1058 91.4552 71.5371 91.6803C76.1737 92.1039 79.6549 93.7723 81.8559 96.6133C83.9286 99.2764 84.7201 102.939 84.0233 106.656C83.861 107.528 83.0844 108.163 82.1739 108.171L82.1741 108.171Z" fill="#111739"/>
<path d="M98.7712 137.877C98.6833 137.877 98.5967 137.87 98.5101 137.858C98.268 137.825 92.5207 136.996 89.3509 131.787C86.5368 127.172 86.6992 120.779 89.8204 112.785C92.3206 106.382 92.5249 100.951 90.4224 96.64C87.7707 91.1873 82.1831 89.3269 82.1263 89.3084C81.1306 88.9913 80.588 87.9505 80.9141 86.9834C81.2388 86.0163 82.3089 85.4887 83.3047 85.8045C83.5929 85.8966 90.4305 88.1255 93.8171 95.015C96.408 100.279 96.2524 106.702 93.3585 114.11C90.6648 120.999 90.4145 126.319 92.6008 129.923C94.8548 133.607 98.9799 134.219 99.0218 134.225C100.004 134.362 100.712 135.212 100.644 136.175C100.576 137.138 99.7565 137.887 98.7634 137.891L98.7712 137.877Z" fill="#111739"/>
<path d="M107.52 125.282C107.168 125.281 106.822 125.183 106.524 125.002C101.305 121.848 99.9287 115.722 102.433 106.792C104.365 99.8981 103.774 94.5047 100.672 90.7654C99.3742 89.1825 97.656 87.9746 95.705 87.272C94.6998 86.9878 94.1207 85.9655 94.4129 84.9879C94.7051 84.0103 95.7564 83.4484 96.7616 83.7313C99.462 84.6431 101.84 86.2813 103.622 88.4548C108.486 94.3232 107.649 102.193 106.085 107.76C104.077 114.933 104.896 119.682 108.524 121.874C109.244 122.308 109.581 123.154 109.347 123.946C109.114 124.74 108.367 125.285 107.52 125.282L107.52 125.282Z" fill="#111739"/>
<path d="M105.948 68.4471C104.986 68.4444 104.179 67.7418 104.07 66.8128C103.962 65.8839 104.587 65.0234 105.523 64.8115C107.846 64.2234 109.702 62.5274 110.448 60.309C110.806 59.2761 110.875 58.1682 110.645 57.0998C110.415 56.0327 109.896 55.0446 109.141 54.238C107.293 52.1117 103.5 52.1012 100.64 52.4617C98.5012 52.7407 96.3974 53.2341 94.3639 53.9354C93.3858 54.2959 92.2912 53.8183 91.9205 52.867C91.5485 51.9157 92.041 50.8512 93.0191 50.4907C93.5725 50.2841 106.585 45.5802 112.036 51.8433C114.418 54.4696 115.184 58.1314 114.044 61.455C112.867 64.8867 109.974 67.4982 106.368 68.3851C106.23 68.4207 106.09 68.4418 105.948 68.4471Z" fill="#111739"/>
<path d="M98.3486 80.3611C98.266 80.3677 98.1821 80.3677 98.0983 80.3611C97.0619 80.2295 96.3313 79.3072 96.4666 78.2979C96.8076 75.7559 96.4666 73.9099 95.4925 72.8166C93.7878 70.9297 89.9281 70.9297 86.5186 70.9297C83.8858 70.9297 80.1018 70.5902 77.6583 67.6771C75.2149 64.7627 74.7075 59.8193 76.2147 52.6931C77.2104 47.9878 76.6612 44.4301 74.537 41.821C71.6093 38.2249 65.3885 36.2685 56.0506 36.0105C50.9894 35.867 47.7167 34.4157 46.342 31.6854C44.0691 27.1644 48.1793 21.4064 48.6569 20.7617L48.6555 20.763C49.2698 19.9394 50.4536 19.7551 51.3019 20.3525C52.1488 20.9485 52.3382 22.1012 51.724 22.9248C50.8608 24.0933 48.6447 27.9091 49.7392 30.0618C50.6295 31.8118 53.7209 32.2723 56.1561 32.3276C66.8157 32.6223 73.8009 34.9802 77.5068 39.5343C80.329 43.0054 81.1435 47.6804 79.9232 53.438C78.6771 59.3327 78.9044 63.334 80.5942 65.3483C81.6928 66.6602 83.522 67.2457 86.5186 67.2457C90.5231 67.2457 95.5046 67.2457 98.3378 70.3851C100.103 72.3378 100.72 75.0824 100.232 78.7745C100.101 79.6863 99.297 80.3651 98.3486 80.3611Z" fill="#111739"/>
<path d="M86.0949 40.1021C85.0883 40.1034 84.2549 39.3376 84.2008 38.36C83.7043 29.4522 78.4199 28.6889 72.3019 27.8088C69.3363 27.3812 66.2706 26.9391 63.922 25.4141C61.9291 24.1246 60.7507 22.3562 60.5126 20.3008C60.2853 18.3377 60.8914 16.1745 62.3228 13.88L62.3242 13.8787C62.9357 12.8945 63.6419 11.9681 64.4307 11.1116C65.1464 10.3682 66.3464 10.3287 67.1108 11.0248C67.8752 11.7208 67.9158 12.8879 67.2001 13.6313C66.2909 14.5747 64.0031 17.5286 64.2791 19.8945C64.3968 20.8603 64.9651 21.6629 66.0258 22.3524C67.6696 23.4169 70.1927 23.7814 72.8447 24.1682C78.9478 25.0484 87.3076 26.2537 87.9705 38.1679C87.9976 38.6561 87.8244 39.135 87.4876 39.4982C87.152 39.8613 86.6812 40.0798 86.1793 40.1061L86.0949 40.1021Z" fill="#111739"/>
<path d="M94.1198 30.2421C93.1741 30.2394 92.3759 29.5605 92.2474 28.6513C91.3991 22.6868 89.3575 22.3881 85.9739 21.8683C83.655 21.5223 80.7693 21.0868 78.3677 18.5525C76.889 17.092 76.1625 15.0646 76.387 13.0263C76.6333 10.9856 77.8157 8.9041 79.8952 6.84466V6.84334C80.7881 5.95651 81.7649 5.15258 82.8121 4.44205C83.2275 4.14731 83.7484 4.02888 84.2557 4.11573C84.7631 4.20257 85.2109 4.48679 85.4991 4.90124C85.7859 5.31704 85.8873 5.82755 85.7791 6.31701C85.6709 6.80648 85.3624 7.23281 84.9254 7.49595C83.6983 8.30646 80.4471 10.9513 80.1482 13.4604C80.0386 14.3919 80.3566 15.2183 81.1521 16.0577C82.6674 17.6419 84.4627 17.8998 86.5544 18.2274C90.214 18.7761 94.7668 19.4617 95.998 28.1457C96.1333 29.1483 95.4109 30.0693 94.3813 30.2088C94.2947 30.2259 94.2067 30.2365 94.1202 30.2417L94.1198 30.2421Z" fill="#111739"/>
</svg>
