<svg width="160" height="181" viewBox="0 0 160 181" fill="none" xmlns="http://www.w3.org/2000/svg">
<path d="M134.309 90.4098C138.39 86.9566 142.158 83.1891 145.297 79.7361C158.482 65.2951 162.877 53.3667 158.167 45.2038C153.458 37.041 140.901 34.8443 122.067 38.9257C117.357 39.868 112.336 41.4365 107.312 43.0071C106.369 37.6711 105.115 32.6476 103.544 28.252C97.5803 9.7317 89.7312 0 80 0C70.2688 0 62.4197 9.73116 56.4557 28.252C54.8851 32.9617 53.6307 37.6695 52.6884 43.0071C47.6667 41.4366 42.643 39.8681 37.9332 38.9257C19.0988 34.8442 6.54032 36.7289 1.83264 45.2038C-2.87707 53.3667 1.51852 65.2951 14.7031 79.7361C17.8422 83.1893 21.6097 86.9568 25.6911 90.4098C21.6097 93.8631 17.8425 97.6306 14.7031 101.084C1.51843 115.525 -2.87718 127.453 1.83264 135.616C4.97171 140.952 11.5638 143.779 21.2955 143.779C26.0052 143.779 31.6551 143.15 37.9332 141.582C42.6429 140.64 47.6644 139.071 52.6884 137.5C53.6307 142.837 54.8851 147.86 56.4557 152.256C62.4197 170.776 70.2688 180.508 80 180.508C89.7312 180.508 97.5803 170.776 103.544 152.256C105.115 147.546 106.369 142.838 107.312 137.5C112.333 139.071 117.357 140.64 122.067 141.582C128.345 142.838 133.995 143.779 138.704 143.779C148.436 143.779 155.028 140.954 158.167 135.616C162.877 127.453 158.481 115.525 145.297 101.084C142.156 97.6304 138.388 93.8629 134.309 90.4098ZM123.949 48.0311C129.913 46.7746 134.937 46.1485 138.704 46.1485C145.297 46.1485 149.064 47.719 150.319 49.9158C152.201 53.369 150.319 61.2179 138.704 73.7742C135.565 77.2275 131.484 80.995 127.402 84.7622C122.381 80.6807 116.729 76.5994 111.079 72.8343C110.765 65.9277 109.822 59.0212 108.882 52.4294C114.218 50.5426 119.24 48.9741 123.949 48.0317V48.0311ZM91.3017 109.87C87.5344 112.067 83.7673 113.952 79.9996 116.148C76.2322 114.266 72.4651 112.067 68.6974 109.87C64.9301 107.673 61.163 105.474 57.7094 103.278C57.3953 99.1962 57.3953 94.8028 57.3953 90.4072C57.3953 86.0116 57.3953 81.6181 57.7094 77.5367C61.1627 75.3399 64.9302 73.1411 68.6974 70.9443C72.4647 68.7476 76.2318 66.8628 79.9996 64.6662C83.7669 66.5488 87.534 68.7476 91.3017 70.9443C95.0691 73.1411 98.8362 75.3399 102.29 77.5367C102.604 81.6181 102.604 86.0116 102.604 90.4072C102.604 94.8028 102.604 99.1963 102.29 103.278C98.8344 105.474 95.0673 107.673 91.3017 109.87ZM101.347 114.266C101.033 118.033 100.405 121.8 100.091 125.254C96.6374 123.997 93.4983 122.429 90.0453 120.858C91.9279 119.916 93.8126 118.661 95.695 117.719C97.5797 116.777 99.4625 115.52 101.347 114.266ZM69.9542 120.858C66.501 122.429 63.0477 123.997 59.9088 125.254C59.2806 121.8 58.9665 118.033 58.6524 114.266C60.535 115.522 62.4197 116.462 64.3021 117.719C66.1868 118.973 68.0717 119.916 69.9542 120.858ZM48.6067 96.9995C45.4676 94.8027 42.6427 92.6039 39.8176 90.4071C42.6426 88.2104 45.4673 86.0116 48.6067 83.8148V90.4071C48.2946 92.6039 48.2946 94.8027 48.6067 96.9995ZM58.652 66.5486C58.9661 62.7813 59.5944 59.0142 59.9085 55.5607C63.3617 56.8172 66.5009 58.3857 69.9539 59.9562C68.0712 60.8986 66.1866 62.153 64.3041 63.0953C62.4194 64.0377 60.5366 65.2942 58.652 66.5486ZM90.0449 59.9563C93.4982 58.3857 96.9515 56.8172 100.09 55.5607C100.719 59.014 101.033 62.7815 101.347 66.5487C99.4641 65.2922 97.5795 64.352 95.697 63.0955C93.8123 61.8411 91.9274 60.8986 90.0449 59.9563ZM111.392 83.8148C114.532 86.0115 117.356 88.2103 120.182 90.4071C117.357 92.6039 114.532 94.8027 111.392 96.9995V90.4071C111.705 88.2104 111.705 86.0116 111.392 83.8148ZM65.2444 31.0765C70.2661 14.7529 76.2324 9.10266 79.9996 9.10266C83.7668 9.10266 89.7307 14.7524 94.7547 31.0765C96.3253 35.7862 97.5797 40.8076 98.5221 46.1437C92.5581 48.6545 86.28 51.1654 80.0018 54.3065C73.7237 51.1675 67.4455 48.3426 61.4815 46.1437C62.4197 40.8076 63.6759 35.7841 65.2444 31.0765ZM21.2973 73.7694C9.68307 61.2131 7.7984 53.3645 9.68308 49.9109C10.9396 47.7142 14.3928 46.1436 21.2973 46.1436C25.0646 46.1436 30.0864 46.7719 36.0525 48.0263C40.7622 48.9686 45.7837 50.5371 51.1197 52.4218C50.1774 59.0142 49.5492 65.6065 48.923 72.8268C42.9591 76.5941 37.6208 80.6754 32.5995 84.7547C28.2039 80.9894 24.4367 77.2218 21.2973 73.7688V73.7694ZM36.0504 132.786C19.4126 136.553 11.564 134.356 9.68094 130.903C7.79829 127.45 9.68094 119.601 21.2952 107.045C24.4343 103.592 28.5159 99.824 32.5974 96.0568C37.6191 100.138 43.2711 104.22 48.9209 107.985C49.235 114.891 50.1774 121.798 51.1176 128.39C45.7815 130.274 40.7602 131.843 36.0504 132.785V132.786ZM94.7526 149.738C89.7309 166.061 83.7646 171.712 79.9974 171.712C76.2302 171.712 70.2663 166.062 65.2423 149.738C63.6717 145.028 62.4173 140.007 61.4749 134.671C67.4389 132.16 73.7171 129.649 79.9952 126.508C86.2734 129.647 92.5515 132.472 98.5155 134.671C97.5773 140.007 96.3211 145.03 94.7526 149.738ZM150.318 130.903C148.436 134.357 140.587 136.553 123.949 132.786C119.239 131.844 114.218 130.275 108.882 128.39C109.824 121.798 110.452 115.206 111.078 107.985C117.042 104.218 122.38 100.137 127.402 96.0576C131.483 99.8249 135.25 103.278 138.704 107.046C150.318 119.602 152.201 127.765 150.318 130.904V130.903Z" fill="#111739"/>
<path d="M80 81.6229C75.2903 81.6229 71.2109 85.3902 71.2109 90.412C71.2109 95.1217 74.9783 99.2011 80 99.2011C85.0218 99.2011 88.7891 95.4337 88.7891 90.412C88.7891 85.7023 84.7097 81.6229 80 81.6229ZM80 90.7262C79.6859 90.412 80 90.0979 80 90.0979C80 90.0979 80.3141 90.0979 80 90.7262Z" fill="#111739"/>
</svg>
