<svg width="161" height="185" viewBox="0 0 161 185" fill="none" xmlns="http://www.w3.org/2000/svg">
<path d="M114.134 42.6973L135.771 21.0605C125.581 11.7187 112.722 5.80256 98.9985 4.14301C97.014 11.2038 94.1125 17.9752 90.3669 24.2833C98.9419 29.529 106.912 35.7032 114.133 42.6973H114.134Z" fill="#111739"/>
<path d="M148.315 104.095C154.669 93.1809 157.811 80.6946 157.378 68.0724C151.202 69.9529 145.272 72.5602 139.711 75.8408C144.689 84.4839 147.631 94.1457 148.314 104.095L148.315 104.095Z" fill="#111739"/>
<path d="M136.78 70.6339C143.099 66.9143 149.867 64.0137 156.92 62.0023C155.234 48.2895 149.309 35.4448 139.973 25.2599L118.336 46.8966C125.329 54.1139 131.513 62.074 136.78 70.6339Z" fill="#111739"/>
<path d="M96.2098 119.375C92.9101 124.925 90.3012 130.857 88.4414 137.04C101.065 137.467 113.554 134.316 124.464 127.949C114.513 127.294 104.846 124.36 96.2108 119.375L96.2098 119.375Z" fill="#111739"/>
<path d="M90.6856 74.5765L71.4946 93.7379C78.387 100.384 85.9897 106.25 94.1665 111.231C98.4757 104.617 103.408 98.4311 108.898 92.7603L90.6856 74.5765Z" fill="#111739"/>
<path d="M49.7738 66.8657C54.7666 75.0323 60.6429 82.626 67.2963 89.5079L86.4577 70.3466L68.2453 52.1046C62.5807 57.6123 56.3949 62.5548 49.7734 66.8657H49.7738Z" fill="#111739"/>
<path d="M46.8078 61.6308C52.9807 57.608 58.7611 53.0134 64.0709 47.9065L41.5993 25.4927C36.7081 33.2611 39.0098 46.8135 46.8078 61.6302V61.6308Z" fill="#111739"/>
<path d="M81.9686 26.47C74.0693 21.8718 65.1974 19.2014 56.074 18.6733C52.4711 18.5269 48.904 19.426 45.8022 21.2628L68.216 43.6765L68.2147 43.6752C73.3256 38.3819 77.9304 32.6212 81.9686 26.47Z" fill="#111739"/>
<path d="M109.876 46.9259C102.988 40.2749 95.3845 34.4077 87.2024 29.433C82.8995 36.0429 77.976 42.2274 72.5005 47.9048L90.6846 66.1748L109.876 46.9259Z" fill="#111739"/>
<path d="M131.601 73.8005C126.616 65.6352 120.75 58.0414 114.107 51.1569L94.9453 70.3478L113.129 88.532C118.813 83.0564 124.998 78.1241 131.601 73.8005Z" fill="#111739"/>
<path d="M134.564 79.0353C128.396 83.0647 122.617 87.6593 117.301 92.7596L139.771 115.086C144.692 107.404 142.36 93.7948 134.564 79.034V79.0353Z" fill="#111739"/>
<path d="M99.3765 114.196C114.194 121.993 127.745 124.295 135.57 119.433L113.1 96.9909L113.098 96.9896C108.018 102.303 103.425 108.062 99.3752 114.196L99.3765 114.196Z" fill="#111739"/>
<path d="M92.9282 3.65407H90.6843C78.8326 3.62068 67.1851 6.73934 56.9341 12.6878C66.8822 13.3994 76.54 16.3499 85.187 21.3193C88.4828 15.7718 91.0828 9.83755 92.9272 3.65407H92.9282Z" fill="#111739"/>
<path d="M23.9943 72.5904C30.1544 70.719 36.067 68.1102 41.6017 64.822C36.6052 56.1865 33.6534 46.5225 32.9701 36.5677C26.6531 47.4935 23.5422 59.9785 23.9943 72.5904Z" fill="#111739"/>
<path d="M63.0352 93.7369C56.0389 86.5337 49.8541 78.5828 44.5929 70.0295C38.2914 73.7866 31.5183 76.6882 24.4526 78.6611C26.1494 92.3624 32.0734 105.194 41.3997 115.374L63.0352 93.7369Z" fill="#111739"/>
<path d="M91.0013 116.409C82.4431 111.156 74.4922 104.97 67.294 97.9669L45.6572 119.604C55.8185 128.939 68.6451 134.864 82.3405 136.549C84.3353 129.487 87.2472 122.716 91.0003 116.409H91.0013Z" fill="#111739"/>
<path d="M160.169 135.573L139.971 115.375L139.769 115.087C139.264 115.953 138.645 116.746 137.928 117.446C137.214 118.164 136.423 118.802 135.569 119.345L135.741 119.517L139.827 123.718L148.401 132.35C132.403 147.612 111.07 156.01 88.9596 155.745C66.8517 155.48 45.7229 146.576 30.0941 130.937C14.4649 115.298 5.57652 94.1616 5.32859 72.055C5.0794 49.947 13.4926 28.6177 28.766 12.6337L29.4274 13.267L37.1958 21.0636L41.2818 25.12L41.4834 25.3499C42.0383 24.488 42.7062 23.7045 43.4679 23.0199C44.1757 22.3109 44.9682 21.693 45.8275 21.178L45.6258 20.9763L41.5412 16.9779V16.834L32.5345 7.97261L30.8364 6.3041L29.1101 4.57779L25.429 0.865734C24.2601 -0.294116 22.3732 -0.287704 21.2135 0.879863C20.0537 2.04743 20.06 3.9356 21.2276 5.09535L23.8749 7.77086L24.5081 8.40411C8.52314 25.4476 -0.256053 48.0106 0.00568878 71.3766C0.266434 94.7433 9.54807 117.102 25.9105 133.787C42.2733 150.469 64.4484 160.182 87.8045 160.896V171.744H72.8432C71.9671 171.709 71.1335 172.12 70.6275 172.837L65.2766 181.468C64.8912 182.022 64.8912 182.757 65.2766 183.309C65.7942 183.889 66.5405 184.216 67.3188 184.202H113.9C114.679 184.227 115.431 183.9 115.942 183.309C116.398 182.798 116.457 182.044 116.086 181.468L110.735 172.837C110.229 172.12 109.395 171.709 108.519 171.744H93.6722V160.896C115.636 160.202 136.597 151.528 152.627 136.498L155.907 139.779V139.778C156.454 140.352 157.213 140.674 158.007 140.67C158.805 140.66 159.569 140.34 160.135 139.778C161.277 138.614 161.289 136.756 160.165 135.577L160.169 135.573Z" fill="#111739"/>
</svg>
