<svg width="179" height="179" viewBox="0 0 179 179" fill="none" xmlns="http://www.w3.org/2000/svg">
<path d="M86.5166 50.7167H92.4833V56.6833H86.5166V50.7167Z" fill="#111739"/>
<path d="M176.017 0H20.8833C15.3469 0.00665914 10.038 2.20821 6.12385 6.12385C2.20835 10.038 0.00681905 15.3469 0 20.8833V164.083C0.00532738 168.038 1.57824 171.829 4.37374 174.626C7.1706 177.422 10.9623 178.995 14.9167 179H176.017C176.808 179 177.567 178.686 178.126 178.126C178.686 177.567 179 176.808 179 176.017V2.98333C179 2.19222 178.686 1.43306 178.126 0.87369C177.567 0.314324 176.808 0 176.017 0ZM5.96667 20.8833C5.97066 17.4459 7.16 14.1147 9.33357 11.4512C11.5071 8.78887 14.5331 6.95747 17.9 6.265V149.165H14.9167C11.6789 149.176 8.53302 150.252 5.96667 152.226V20.8833ZM173.033 161.1H11.9333V167.067H173.033V173.033H14.9167C11.7189 173.033 8.76486 171.327 7.16545 168.558C5.56724 165.789 5.56724 162.377 7.16545 159.608C8.765 156.839 11.7189 155.133 14.9167 155.133H173.033V161.1ZM173.033 149.167H23.8667V5.96667H173.033V149.167Z" fill="#111739"/>
<path d="M32.8166 95.4667H164.083C164.874 95.4667 165.634 95.1524 166.193 94.593C166.752 94.0336 167.067 93.2745 167.067 92.4834V14.9167C167.067 14.1256 166.752 13.3664 166.193 12.807C165.634 12.2477 164.874 11.9333 164.083 11.9333H32.8166C31.1691 11.9333 29.8333 13.2692 29.8333 14.9167V92.4834C29.8333 93.2745 30.1476 94.0336 30.7069 94.593C31.2663 95.1524 32.0255 95.4667 32.8166 95.4667ZM53.5922 89.5L60.1023 80.55H86.5169V74.5834H64.4403L68.7806 68.6167H80.5503V62.65H73.1185L94.2228 33.6319L102.138 62.65H92.4836V68.6167H103.767L109.462 89.5H53.5922ZM115.646 89.5L114.017 83.5334H119.333V77.5667H112.392L102.627 41.7667L137.343 89.5H115.646ZM35.8013 17.9H161.101V89.5H144.72L97.8795 25.0975C97.2921 24.3663 96.4038 23.9415 95.4662 23.9415C94.5286 23.9415 93.6402 24.3663 93.0529 25.0975L46.2129 89.5H35.7978L35.8013 17.9Z" fill="#111739"/>
<path d="M140.217 53.7C144.172 53.7 147.967 52.1284 150.765 49.3317C153.562 46.5335 155.133 42.739 155.133 38.7833C155.133 34.8276 153.562 31.0335 150.765 28.2349C147.967 25.4381 144.172 23.8666 140.217 23.8666C136.261 23.8666 132.467 25.4382 129.668 28.2349C126.871 31.0331 125.3 34.8276 125.3 38.7833C125.305 42.7377 126.878 46.5294 129.674 49.3262C132.471 52.1218 136.262 53.6945 140.217 53.7ZM140.217 29.8333C142.59 29.8333 144.868 30.7762 146.545 32.4544C148.223 34.1325 149.167 36.4101 149.167 38.7831C149.167 41.1562 148.224 43.4341 146.545 45.1119C144.867 46.7897 142.59 47.733 140.217 47.733C137.844 47.733 135.566 46.79 133.888 45.1119C132.21 43.4338 131.267 41.1562 131.267 38.7831C131.267 36.4101 132.21 34.1322 133.888 32.4544C135.566 30.7765 137.844 29.8333 140.217 29.8333Z" fill="#111739"/>
<path d="M53.7 26.85H59.6666V32.8166H53.7V26.85Z" fill="#111739"/>
<path d="M53.7 38.7833H59.6666V44.75H53.7V38.7833Z" fill="#111739"/>
<path d="M47.7334 32.8167H53.7001V38.7833H47.7334V32.8167Z" fill="#111739"/>
<path d="M59.6667 32.8167H65.6334V38.7833H59.6667V32.8167Z" fill="#111739"/>
<path d="M38.7833 140.217V143.2H158.117V140.217C158.117 138.634 158.745 137.116 159.864 135.997C160.983 134.879 162.501 134.25 164.083 134.25H167.067V110.383H164.083C162.501 110.383 160.983 109.755 159.864 108.636C158.745 107.517 158.117 105.999 158.117 104.417V101.433H38.7833V104.417C38.7833 105.999 38.1546 107.517 37.0359 108.636C35.9171 109.755 34.3988 110.383 32.8166 110.383H29.8333V134.25H32.8166C34.3988 134.25 35.9171 134.879 37.0359 135.997C38.1546 137.116 38.7833 138.634 38.7833 140.217ZM35.7999 115.972C37.863 115.435 39.7447 114.358 41.2511 112.85C42.7587 111.344 43.8362 109.462 44.3743 107.4H152.524C153.062 109.462 154.14 111.344 155.648 112.85C157.154 114.358 159.036 115.435 161.099 115.972V128.663V128.662C159.036 129.199 157.154 130.276 155.648 131.784C154.14 133.29 153.062 135.172 152.524 137.233H44.3743C43.8362 135.172 42.7587 133.29 41.2511 131.784C39.7447 130.276 37.8629 129.199 35.7999 128.662V115.972Z" fill="#111739"/>
<path d="M56.6833 113.367H68.6167V119.333H56.6833V113.367Z" fill="#111739"/>
<path d="M74.5833 113.367H116.35V119.333H74.5833V113.367Z" fill="#111739"/>
<path d="M122.317 113.367H134.25V119.333H122.317V113.367Z" fill="#111739"/>
<path d="M47.7334 125.3H65.6334V131.267H47.7334V125.3Z" fill="#111739"/>
<path d="M71.6001 125.3H125.3V131.267H71.6001V125.3Z" fill="#111739"/>
<path d="M131.267 125.3H149.167V131.267H131.267V125.3Z" fill="#111739"/>
</svg>
