<svg width="183" height="183" viewBox="0 0 183 183" fill="none" xmlns="http://www.w3.org/2000/svg">
<path d="M91.5014 91.5014H49.9089L45.7507 95.661V111.591L23.4989 92.4999L20.7959 91.5014H8.31851V8.31993H108.138V74.8637H116.456V4.15961L112.296 0H4.15961L0 4.15961V95.6618L4.15961 99.8199H19.258L47.2067 123.778L54.0692 120.617V99.8199H91.5014V91.5014Z" fill="#111739"/>
<path d="M178.843 58.2295H128.934V66.5473H174.683V149.729H162.205L159.503 150.727L137.251 169.818V153.888L133.092 149.729H74.8622V112.297H66.5444V153.889L70.704 158.049H128.931V178.844L135.793 182.005L163.742 158.049H178.84L183 153.889V62.387L178.843 58.2295Z" fill="#111739"/>
<path d="M49.909 24.9548L45.7494 28.2816L37.4316 69.8741L45.7494 71.5383L49.2434 54.0699H67.3773L70.7056 71.5383L79.0234 69.8741L70.7056 28.2816L66.546 24.9548H49.909ZM50.824 45.75L53.3194 33.2726H63.1356L65.6311 45.75H50.824Z" fill="#111739"/>
<path d="M103.979 99.8185H108.844C110.479 106.845 113.774 113.378 118.453 118.868C114.075 121.458 109.064 122.782 103.978 122.694V131.012C111.397 131.194 118.681 129.009 124.774 124.773C130.852 129.053 138.138 131.282 145.57 131.137V122.82C140.484 122.907 135.474 121.583 131.096 118.993C135.793 113.466 139.088 106.89 140.703 99.8188H145.57V91.501H128.933V87.3414H120.615V91.501H103.978L103.979 99.8185ZM132.053 99.8185C130.613 104.853 128.134 109.529 124.774 113.544C121.415 109.529 118.935 104.853 117.496 99.8185H132.053Z" fill="#111739"/>
</svg>
