<svg width="185" height="185" viewBox="0 0 185 185" fill="none" xmlns="http://www.w3.org/2000/svg">
<path d="M69.622 0H19.3813C8.69359 0 0 8.69358 0 19.3813V69.622C0 80.3097 8.69359 89.0033 19.3813 89.0033H69.6581C80.3459 89.0033 89.0395 80.3097 89.0023 69.622V19.3813C89.0023 8.69358 80.3101 0 69.621 0L69.622 0ZM84.4877 69.5842C84.4877 77.7887 77.8265 84.4499 69.622 84.4499H19.3813C11.1769 84.4499 4.51557 77.7887 4.51557 69.5842V19.3435C4.51557 11.1391 11.1769 4.47778 19.3813 4.47778V4.51501H69.622C77.8265 4.51501 84.4877 11.1763 84.4877 19.3808V69.5842Z" fill="#111739"/>
<path d="M164.686 0H114.446C109.289 0 104.398 1.99398 100.747 5.68276C97.0971 9.37036 95.0645 14.2261 95.0645 19.3813V69.622C95.0645 80.3097 103.758 89.0033 114.446 89.0033H164.723C175.373 89.0033 184.067 80.3097 184.067 69.622V19.3813C184.067 8.69358 175.373 0 164.685 0L164.686 0ZM179.552 69.6236C179.552 77.8281 172.891 84.4894 164.686 84.4894H114.446C106.241 84.4894 99.58 77.8281 99.58 69.6236V19.383C99.58 15.4311 101.161 11.6676 103.945 8.84544C106.768 6.02332 110.494 4.48008 114.445 4.48008V4.51731H164.686C172.891 4.51731 179.552 11.1786 179.552 19.3831L179.552 69.6236Z" fill="#111739"/>
<path d="M164.686 95.0249H114.446C109.289 95.0249 104.398 97.0189 100.747 100.708C97.0971 104.395 95.0645 109.251 95.0645 114.406V164.683C95.0645 175.371 103.758 184.064 114.446 184.064H164.723C175.373 184.064 184.067 175.371 184.067 164.646V114.405C184.067 103.718 175.373 95.0239 164.685 95.0239L164.686 95.0249ZM179.552 164.649C179.552 172.853 172.891 179.514 164.686 179.514L114.446 179.513C106.241 179.513 99.58 172.852 99.58 164.647V114.407C99.58 110.455 101.123 106.73 103.945 103.907C106.768 101.084 110.494 99.5412 114.445 99.5412L164.686 99.5425C172.891 99.5425 179.552 106.204 179.552 114.408L179.552 164.649Z" fill="#111739"/>
<path d="M69.622 95.0249H19.3813C8.69359 95.0249 0 103.719 0 114.406V164.683C0 175.371 8.69359 184.064 19.3813 184.064H69.6581C80.3459 184.064 89.0395 175.371 89.0023 164.646V114.405C89.0023 103.718 80.3101 95.0239 69.621 95.0239L69.622 95.0249ZM84.4877 164.649C84.4877 172.853 77.8265 179.514 69.622 179.514L19.3813 179.513C11.1769 179.513 4.51557 172.852 4.51557 164.647V114.407C4.51557 106.202 11.1769 99.5409 19.3813 99.5409H69.622C77.8265 99.5409 84.4877 106.202 84.4877 114.407V164.649Z" fill="#111739"/>
<path d="M70.2234 42.2238H46.7771L46.7784 18.7404C46.7784 17.4988 45.7628 16.4819 44.5199 16.4819C43.2783 16.4819 42.2614 17.4975 42.2614 18.7404V42.2238H18.778C17.5364 42.2238 16.5195 43.2394 16.5195 44.4823C16.5195 45.7239 17.5351 46.7408 18.778 46.7408H42.2614V70.2242C42.2614 71.4658 43.277 72.4827 44.5199 72.4827C45.7615 72.4827 46.7784 71.4671 46.7784 70.2242V46.7408H70.2618C71.5034 46.7408 72.4818 45.7252 72.4818 44.4823C72.4818 43.2394 71.4663 42.2238 70.2234 42.2238Z" fill="#111739"/>
<path d="M165.288 42.2238H113.841C112.599 42.2238 111.583 43.2394 111.583 44.4823C111.583 45.7239 112.598 46.7408 113.841 46.7408H165.324C166.566 46.7408 167.544 45.7252 167.544 44.4823C167.544 43.2394 166.528 42.2238 165.287 42.2238H165.288Z" fill="#111739"/>
<path d="M47.7573 139.471L64.3165 122.912C65.1819 122.009 65.1819 120.579 64.3165 119.713C63.4139 118.848 61.9835 118.848 61.1181 119.713L44.5589 136.272L27.9998 119.713C27.0971 118.848 25.6668 118.848 24.8014 119.713C23.936 120.616 23.936 122.046 24.8014 122.912L41.3606 139.471L24.7643 156.104C23.8989 157.007 23.8989 158.437 24.7643 159.303C25.1777 159.755 25.7799 159.98 26.3448 159.98C26.947 159.98 27.5119 159.755 27.9626 159.303L44.5589 142.669L61.1924 159.303C61.6059 159.755 62.208 159.98 62.773 159.98C63.3379 159.98 63.9401 159.755 64.3908 159.303C65.2561 158.4 65.2561 156.97 64.3908 156.104L47.7573 139.471Z" fill="#111739"/>
<path d="M165.288 137.288H113.841C112.599 137.288 111.583 138.304 111.583 139.547C111.583 140.788 112.598 141.805 113.841 141.805H165.324C166.566 141.805 167.544 140.79 167.544 139.547C167.544 138.305 166.528 137.288 165.287 137.288H165.288Z" fill="#111739"/>
<path d="M139.581 133.449C143.946 133.449 147.522 129.873 147.522 125.508C147.522 121.142 143.946 117.567 139.581 117.567C137.474 117.567 135.479 118.395 133.974 119.9C132.469 121.404 131.641 123.4 131.641 125.507C131.641 129.873 135.215 133.449 139.581 133.449ZM137.135 123.099C137.813 122.421 138.678 122.084 139.581 122.084C141.463 122.084 143.005 123.627 142.968 125.508C142.968 127.39 141.425 128.932 139.544 128.932C137.661 128.932 136.119 127.389 136.119 125.508C136.119 124.605 136.495 123.74 137.135 123.099Z" fill="#111739"/>
<path d="M139.581 145.644C135.215 145.644 131.64 149.219 131.64 153.585C131.64 155.692 132.468 157.687 133.973 159.192C135.477 160.697 137.473 161.525 139.58 161.525C143.945 161.525 147.521 157.949 147.521 153.584C147.522 149.22 143.946 145.644 139.581 145.644ZM139.619 157.009C138.678 157.009 137.813 156.633 137.173 155.993C136.496 155.354 136.158 154.489 136.158 153.585C136.158 151.703 137.701 150.16 139.582 150.16C141.464 150.16 143.006 151.704 143.045 153.585C143.044 155.467 141.5 157.009 139.619 157.009Z" fill="#111739"/>
</svg>
