<svg width="226" height="177" viewBox="0 0 226 177" fill="none" xmlns="http://www.w3.org/2000/svg">
<path d="M159.32 107.418L135.732 103.081C138.384 93.4017 142.948 86.236 149.422 81.5845C155.897 76.9334 165.517 74.6075 178.283 74.6075C189.877 74.6075 198.51 76.0217 204.183 78.8503C209.857 81.6159 213.834 85.1672 216.116 89.5041C218.459 93.7782 219.631 101.666 219.631 113.169L219.353 144.094C219.353 152.893 219.755 159.399 220.556 163.61C221.419 167.759 222.992 172.221 225.274 176.998H199.558C198.881 175.238 198.048 172.63 197.061 169.173C196.629 167.602 196.321 166.564 196.136 166.062C193.092 168.953 186.855 171.499 181.798 173.698C176.74 175.898 171.346 176.998 165.61 176.998C155.497 176.998 147.511 174.201 141.651 168.607C135.854 163.013 133.049 158.205 133.049 149.657C133.049 144 134.376 138.971 137.026 134.571C139.679 130.109 143.378 126.715 148.127 124.389C152.937 122.001 159.845 119.926 168.847 118.166C180.997 115.841 189.413 113.672 194.101 111.661V109.021C194.101 103.93 192.867 100.315 190.4 98.1783C187.934 95.9784 183.278 94.8785 176.432 94.8785C171.807 94.8785 168.199 95.8213 165.61 97.7069C163.02 99.5297 160.923 102.767 159.32 107.418L159.32 107.418ZM194.101 128.915C190.771 130.046 185.499 131.398 178.284 132.969C171.068 134.54 166.351 136.08 164.13 137.589C160.737 140.04 159.042 143.151 159.042 146.922C159.042 150.631 160.4 153.837 163.113 156.539C165.826 159.242 169.279 160.593 173.474 160.593C178.159 160.593 182.63 159.022 186.885 155.879C190.031 153.491 192.098 150.568 193.083 147.111C193.762 144.848 194.101 140.542 194.101 134.194L194.101 128.915Z" fill="#111739"/>
<path d="M85.1249 138.944H42.7696L35.4676 177H0L43.6023 0H85.1209L128.723 177H92.4213L85.1249 138.944ZM79.0735 108.549L64.3657 32.1814L48.6143 108.549H79.0735Z" fill="#111739"/>
</svg>
