<svg width="163" height="174" viewBox="0 0 163 174" fill="none" xmlns="http://www.w3.org/2000/svg">
<path d="M98.4913 39.5057L111.366 46.9388L124.128 54.3075L126.261 55.5393L124.842 57.5468C124.613 57.8708 124.431 58.2353 124.305 58.6287C124.186 59.0044 124.121 59.4074 124.121 59.8266C124.121 60.915 124.563 61.9018 125.276 62.6144C125.989 63.3271 126.975 63.7689 128.064 63.7689C128.191 63.7689 128.289 63.7657 128.357 63.7608C128.446 63.7544 128.541 63.7431 128.641 63.7286L131.221 63.3497V99.7991L128.641 99.4202C128.543 99.4057 128.447 99.3944 128.357 99.388C128.288 99.3831 128.189 99.3799 128.064 99.3799C126.975 99.3799 125.989 99.8217 125.276 100.534C124.563 101.247 124.121 102.234 124.121 103.322C124.121 103.708 124.17 104.065 124.26 104.39C124.358 104.743 124.5 105.07 124.679 105.365L125.866 107.324L123.878 108.472L98.0977 123.356L96.1758 124.465L95.0423 122.555C94.6908 121.961 94.1926 121.471 93.6008 121.133C93.0317 120.808 92.3642 120.623 91.645 120.623C90.9179 120.623 90.2391 120.818 89.6586 121.158L89.6554 121.152C89.054 121.503 88.5541 122.015 88.2075 122.629L87.0901 124.612L85.1182 123.474L71.6566 115.702L71.6582 115.699L58.5834 108.15L56.7066 107.066L57.7111 105.157C57.8578 104.88 57.9707 104.582 58.0481 104.272C58.119 103.983 58.1577 103.666 58.1577 103.322C58.1577 102.234 57.7159 101.247 57.0032 100.535C56.2906 99.8219 55.3038 99.3801 54.2155 99.3801C53.9607 99.3801 54.2896 99.3688 54.1074 99.3737L51.8018 99.4317V63.7306L54.0897 63.7726L54.1703 63.7742H54.2155V63.7661C55.3038 63.7661 56.2906 63.3243 57.0033 62.6116C57.716 61.899 58.1577 60.9122 58.1577 59.8239C58.1577 59.4433 58.1061 59.0789 58.0094 58.7419C57.9046 58.3727 57.7563 58.0374 57.5725 57.739L56.3519 55.772L58.3561 54.6143L71.655 46.936H71.6631L87.0048 38.0792L87.9562 40.5204C88.2448 41.2605 88.7575 41.8957 89.4121 42.3424C90.0409 42.7713 90.8068 43.0228 91.6356 43.0228C92.4546 43.0228 93.206 42.7825 93.8236 42.3698C94.4733 41.936 94.9861 41.3185 95.286 40.5945L96.2679 38.2211L98.4898 39.503L98.4913 39.5057ZM109.112 50.8295L98.1235 44.4849C97.6043 45.1072 96.9997 45.6538 96.3257 46.1037C94.9762 47.0066 93.3622 47.5322 91.6371 47.5322C89.8764 47.5322 88.2382 46.9889 86.8775 46.0585C86.1955 45.5926 85.5844 45.0266 85.0652 44.3817L73.9077 50.8229L73.9093 50.8261L62.3406 57.5064L62.3423 57.5096C62.5535 58.2513 62.6663 59.0268 62.6663 59.8233C62.6663 62.1564 61.7199 64.2689 60.1913 65.799C59.1352 66.8551 57.8018 67.6322 56.3088 68.0128V95.1361C57.8018 95.5167 59.1353 96.2938 60.1913 97.3499C61.7199 98.8801 62.6663 100.992 62.6663 103.326C62.6663 103.958 62.5922 104.586 62.4503 105.202L73.9013 111.813H73.9093L85.6699 118.603C86.181 118.093 86.7582 117.647 87.3871 117.279V117.271C88.6383 116.539 90.0943 116.12 91.6452 116.12C93.156 116.12 94.5814 116.523 95.8179 117.229C96.4403 117.584 97.0126 118.014 97.5238 118.509L119.923 105.578C119.72 104.846 119.612 104.09 119.612 103.327C119.612 100.994 120.558 98.8818 122.087 97.3517C123.315 96.1231 124.92 95.2717 126.711 94.9847V68.1693C124.918 67.8807 123.315 67.0294 122.087 65.8023C120.558 64.2738 119.612 62.16 119.612 59.8267C119.612 58.9399 119.75 58.0805 120.007 57.2727L120.049 57.1437L109.11 50.8279L109.112 50.8295Z" fill="#111739"/>
<path d="M91.6354 30.6312C93.9685 30.6312 96.0809 31.5776 97.6111 33.1062C99.1396 34.6347 100.086 36.7485 100.086 39.0818C100.086 41.4151 99.1396 43.5273 97.6111 45.0574C96.0825 46.5859 93.9687 47.5324 91.6354 47.5324C89.3021 47.5324 87.1899 46.5859 85.6598 45.0574C84.1313 43.5289 83.1848 41.4151 83.1848 39.0818C83.1848 36.7485 84.1313 34.6363 85.6598 33.1062C87.1883 31.5776 89.3021 30.6312 91.6354 30.6312Z" fill="#111739"/>
<path d="M128.062 51.3727C130.395 51.3727 132.507 52.3192 134.038 53.8477C135.566 55.3762 136.513 57.49 136.513 59.8233C136.513 62.1566 135.566 64.2688 134.038 65.7989C132.509 67.3275 130.395 68.2739 128.062 68.2739C125.729 68.2739 123.616 67.3275 122.086 65.7989C120.558 64.2704 119.611 62.1566 119.611 59.8233C119.611 57.49 120.558 55.3778 122.086 53.8477C123.615 52.3192 125.729 51.3727 128.062 51.3727Z" fill="#111739"/>
<path d="M128.062 94.8743C130.395 94.8743 132.507 95.8207 134.038 97.3493C135.566 98.8778 136.513 100.992 136.513 103.325C136.513 105.658 135.566 107.77 134.038 109.301C132.509 110.829 130.395 111.776 128.062 111.776C125.729 111.776 123.616 110.829 122.086 109.301C120.558 107.772 119.611 105.658 119.611 103.325C119.611 100.992 120.558 98.8794 122.086 97.3493C123.616 95.8207 125.729 94.8743 128.062 94.8743Z" fill="#111739"/>
<path d="M95.3957 146.97L95.3909 146.974C97.0468 148.595 97.8932 150.738 97.9239 152.892C97.9545 155.051 97.1612 157.221 95.5376 158.891L95.5199 158.917L95.515 158.912C93.8946 160.568 91.7517 161.415 89.5959 161.445C87.4369 161.476 85.2668 160.683 83.5964 159.059C81.9259 157.435 81.073 155.285 81.0424 153.119C81.0117 150.96 81.805 148.79 83.4286 147.119C85.0523 145.449 87.2032 144.596 89.3688 144.565C91.5278 144.535 93.6979 145.328 95.3684 146.952L95.3942 146.969L95.3957 146.97Z" fill="#111739"/>
<path d="M91.6435 116.119C93.9766 116.119 96.089 117.066 97.6191 118.594C99.1477 120.123 100.094 122.237 100.094 124.57C100.094 126.903 99.1477 129.015 97.6191 130.546C96.0906 132.074 93.9768 133.021 91.6435 133.021C89.3104 133.021 87.198 132.074 85.6679 130.546C84.1393 129.017 83.1929 126.903 83.1929 124.57C83.1929 122.237 84.1393 120.124 85.6679 118.594C87.1964 117.066 89.3102 116.119 91.6435 116.119Z" fill="#111739"/>
<path d="M54.2138 94.8743C56.5469 94.8743 58.6593 95.8207 60.1894 97.3493C61.718 98.8794 62.6644 100.992 62.6644 103.325C62.6644 105.658 61.718 107.77 60.1894 109.301C58.6609 110.829 56.5471 111.776 54.2138 111.776C51.8805 111.776 49.7683 110.829 48.2382 109.301C46.7097 107.772 45.7632 105.658 45.7632 103.325C45.7632 100.992 46.7097 98.8794 48.2382 97.3493C49.7667 95.8207 51.8805 94.8743 54.2138 94.8743Z" fill="#111739"/>
<path d="M54.2138 51.3727C56.5469 51.3727 58.6593 52.3192 60.1894 53.8477C61.718 55.3762 62.6644 57.49 62.6644 59.8233C62.6644 62.1566 61.718 64.2688 60.1894 65.7989C58.6609 67.3275 56.5471 68.2739 54.2138 68.2739C51.8805 68.2739 49.7683 67.3275 48.2382 65.7989C46.7097 64.2704 45.7632 62.1566 45.7632 59.8233C45.7632 57.49 46.7097 55.3778 48.2382 53.8477C49.7667 52.3192 51.8805 51.3727 54.2138 51.3727Z" fill="#111739"/>
<path d="M146.373 117.407C148.706 117.407 150.818 118.354 152.348 119.882C153.877 121.411 154.823 123.525 154.823 125.858C154.823 128.191 153.877 130.303 152.348 131.833C150.82 133.362 148.706 134.308 146.373 134.308C144.039 134.308 141.927 133.362 140.397 131.833C138.868 130.305 137.922 128.191 137.922 125.858C137.922 123.525 138.868 121.412 140.397 119.882C141.925 118.354 144.039 117.407 146.373 117.407Z" fill="#111739"/>
<path d="M154.549 39.6501C156.882 39.6501 158.995 40.5966 160.525 42.1251C162.053 43.6536 163 45.7674 163 48.1007C163 50.434 162.053 52.5462 160.525 54.0764C158.996 55.6049 156.883 56.5513 154.549 56.5513C152.216 56.5513 150.104 55.6049 148.574 54.0764C147.045 52.5478 146.099 50.434 146.099 48.1007C146.099 45.7674 147.045 43.6552 148.574 42.1251C150.102 40.5966 152.216 39.6501 154.549 39.6501Z" fill="#111739"/>
<path d="M141.085 122.245L130.344 109.513L133.776 106.61L144.519 119.339L141.085 122.245Z" fill="#111739"/>
<path d="M88.2095 146.738L89.3784 130.123L93.8689 130.423L92.6984 147.038L88.2095 146.738Z" fill="#111739"/>
<path d="M34.0254 111.666L48.9672 104.308L50.9568 108.339L36.0134 115.698L34.0254 111.666Z" fill="#111739"/>
<path d="M25.4604 138.165C26.5649 140.219 26.7342 142.525 26.1134 144.592C25.4911 146.664 24.0786 148.499 22.0228 149.605C19.9686 150.71 17.6632 150.879 15.596 150.258C13.5241 149.636 11.6893 148.223 10.583 146.168C9.47848 144.113 9.30921 141.808 9.92997 139.741C10.5523 137.669 11.9648 135.834 14.0206 134.728C16.0748 133.623 18.3802 133.454 20.4474 134.075C22.5192 134.697 24.3541 136.11 25.4604 138.165Z" fill="#111739"/>
<path d="M18.6953 135.792L24.8158 120.302L29.0062 121.956L22.8857 137.448L18.6953 135.792Z" fill="#111739"/>
<path d="M149.485 52.0248L134.074 58.3484L132.366 54.1935L147.777 47.8715L149.485 52.0248Z" fill="#111739"/>
<path d="M93.2534 15.1028C92.0247 13.1196 91.7152 10.8298 92.2069 8.73213C92.7003 6.62958 94.0015 4.71248 95.988 3.48214C97.9728 2.2535 100.261 1.94393 102.359 2.4357C104.461 2.92908 106.377 4.23029 107.609 6.21673C108.837 8.19995 109.147 10.4897 108.655 12.5874C108.162 14.6899 106.86 16.6054 104.874 17.8374C102.891 19.066 100.601 19.3756 98.5034 18.8838C96.4008 18.3904 94.4853 17.0908 93.2534 15.1028Z" fill="#111739"/>
<path d="M100.147 17.0593L94.9804 32.8943L90.7029 31.5044L95.8674 15.6678L100.147 17.0593Z" fill="#111739"/>
<path d="M36.7537 45.3132C34.4206 45.2213 32.347 44.1927 30.88 42.6045C29.4353 41.0404 28.5791 38.9299 28.6468 36.6321H28.6404L28.6484 36.5434C28.7403 34.212 29.769 32.1384 31.3572 30.671C32.9212 29.2263 35.0318 28.3702 37.3296 28.4378V28.4314L37.4182 28.4395C39.7497 28.5314 41.8249 29.56 43.2919 31.1482L43.2871 31.1531C44.735 32.7219 45.5928 34.8325 45.5251 37.1205H45.5315L45.5235 37.2091C45.4315 39.5422 44.4029 41.6158 42.8147 43.0828C41.2313 44.5469 39.0852 45.4063 36.7536 45.3127L36.7537 45.3132Z" fill="#111739"/>
<path d="M42.2352 40.6944L52.4673 53.8386L48.912 56.6022L38.6799 43.458L42.2352 40.6944Z" fill="#111739"/>
<path d="M14.5758 39.8069C12.9989 41.4741 10.8931 42.3593 8.75496 42.4399C6.59759 42.5222 4.40645 41.7788 2.69718 40.1939L2.63591 40.1407L2.63914 40.1375C0.971931 38.5606 0.0867547 36.4548 0.00614123 34.3166C-0.0760903 32.1592 0.667226 29.9698 2.25217 28.2588L2.30538 28.1976L2.3086 28.2008C3.8855 26.532 5.99127 25.6484 8.12945 25.5678C10.2868 25.4856 12.4763 26.2289 14.1872 27.8138L14.2485 27.867L14.2453 27.8703C15.9125 29.4455 16.7977 31.5513 16.8783 33.6911C16.9605 35.8485 16.2172 38.038 14.6322 39.7489L14.579 39.8101L14.5758 39.8069Z" fill="#111739"/>
<path d="M14.6791 32.5835L31.3173 33.3607L31.1238 37.8511L14.4856 37.0724L14.6791 32.5835Z" fill="#111739"/>
<path d="M36.0852 13.7489C34.6228 11.9382 34.031 9.70669 34.2584 7.56237C34.4873 5.40822 35.537 3.34099 37.3525 1.87402C39.1632 0.411584 41.3948 -0.180161 43.5391 0.0471917C45.6932 0.27615 47.7605 1.32582 49.2274 3.14134C50.6899 4.95202 51.2816 7.18357 51.0542 9.3279C50.8253 11.482 49.7772 13.5493 47.9601 15.0162C46.1494 16.4787 43.9179 17.0704 41.7735 16.8431C39.6194 16.6141 37.5522 15.5644 36.0852 13.7489Z" fill="#111739"/>
<path d="M43.1682 14.8304L40.0208 31.1863L35.6013 30.3414L38.7487 13.9855L43.1682 14.8304Z" fill="#111739"/>
<path d="M35.8499 156.484C38.1862 156.592 40.2549 157.633 41.7091 159.23C43.1634 160.824 44.0083 162.974 43.9003 165.302C43.7923 167.638 42.7507 169.707 41.1545 171.163C39.5598 172.617 37.4105 173.462 35.0822 173.356C32.7459 173.248 30.6772 172.206 29.2213 170.61C27.767 169.015 26.9221 166.866 27.0285 164.538C27.1365 162.201 28.1782 160.132 29.7744 158.677C31.369 157.222 33.5183 156.377 35.8466 156.484H35.8499Z" fill="#111739"/>
<path d="M29.6252 107.493C31.9616 107.601 34.0303 108.642 35.4845 110.238C36.9388 111.833 37.7837 113.982 37.6757 116.311C37.5677 118.647 36.5261 120.716 34.9298 122.17C33.3352 123.624 31.1859 124.469 28.8576 124.363C26.5213 124.255 24.4526 123.213 22.9967 121.617C21.5424 120.022 20.6975 117.873 20.8039 115.545C20.9119 113.208 21.9535 111.14 23.5498 109.685C25.1444 108.231 27.2937 107.386 29.622 107.493H29.6252Z" fill="#111739"/>
<path d="M30.3435 161.057L20.2002 147.846L23.7732 145.117L33.9182 158.329L30.3435 161.057Z" fill="#111739"/>
</svg>
