<svg width="177" height="188" viewBox="0 0 177 188" fill="none" xmlns="http://www.w3.org/2000/svg">
<path d="M68.6104 59.3661H103.77C105.183 59.3661 106.331 58.218 106.331 56.8047V43.3025C106.331 35.4171 101.773 28.579 95.1557 25.275C98.5587 22.6832 100.753 18.6582 100.753 14.1423C100.753 6.34247 94.2213 0 86.1954 0C78.1696 0 71.6382 6.34403 71.6382 14.1423C71.6382 18.6582 73.8322 22.685 77.2352 25.275C70.6183 28.5789 66.0596 35.4183 66.0596 43.3025V56.8047C66.0596 58.218 67.2076 59.3661 68.621 59.3661H68.6104ZM76.7549 14.1414C76.7549 9.16809 80.9905 5.12179 86.1894 5.12179C91.3883 5.12179 95.6239 9.16809 95.6239 14.1414C95.6239 19.1146 91.3883 23.1609 86.1894 23.1609C80.9905 23.1609 76.7549 19.1146 76.7549 14.1414ZM71.1716 43.3031C71.1716 35.0212 77.9075 28.2853 86.1894 28.2853C94.4713 28.2853 101.207 35.0212 101.207 43.3031V54.2437H71.1704V43.3031H71.1716Z" fill="#111739"/>
<path d="M95.1513 153.34C98.5543 150.748 100.748 146.723 100.748 142.207C100.748 134.407 94.2169 128.065 86.191 128.065C78.1652 128.065 71.6338 134.409 71.6338 142.207C71.6338 146.723 73.8278 150.75 77.2308 153.34C70.6139 156.644 66.0552 163.483 66.0552 171.367V184.87C66.0552 186.283 67.2032 187.431 68.6166 187.431H103.776C105.189 187.431 106.337 186.283 106.337 184.87V171.367C106.337 163.482 101.779 156.644 95.1618 153.34H95.1513ZM76.7519 142.207C76.7519 137.234 80.9875 133.188 86.1864 133.188C91.3852 133.188 95.6208 137.234 95.6208 142.207C95.6208 147.181 91.3852 151.227 86.1864 151.227C80.9875 151.227 76.7519 147.181 76.7519 142.207ZM101.204 182.311H71.167V171.371C71.167 163.089 77.9029 156.353 86.1848 156.353C94.4667 156.353 101.203 163.089 101.203 171.371V182.311H101.204Z" fill="#111739"/>
<path d="M40.4343 120.41V106.908C40.4343 99.0223 35.8756 92.1842 29.2587 88.8802C32.6617 86.2884 34.8557 82.2634 34.8557 77.7475C34.8557 69.9477 28.3243 63.6052 20.2985 63.6052C12.2726 63.6052 5.74124 69.9492 5.74124 77.7475C5.74124 82.2634 7.93518 86.2902 11.3382 88.8802C4.72137 92.1841 0.162598 99.0235 0.162598 106.908V120.41C0.162598 121.823 1.31064 122.971 2.72398 122.971H37.8835C39.2968 122.971 40.4449 121.823 40.4449 120.41H40.4343ZM10.8597 77.7456C10.8597 72.7723 15.0953 68.726 20.2942 68.726C25.4931 68.726 29.7287 72.7723 29.7287 77.7456C29.7287 82.7189 25.4931 86.7652 20.2942 86.7652C15.0953 86.7652 10.8597 82.7189 10.8597 77.7456ZM35.3116 117.849H5.27482V106.909C5.27482 98.6269 12.0107 91.891 20.2926 91.891C28.5745 91.891 35.3104 98.6269 35.3104 106.909V117.849H35.3116Z" fill="#111739"/>
<path d="M171.249 91.5819C171.382 91.4158 171.496 91.2313 171.591 91.0315C173.78 87.4242 175.305 83.3382 175.962 78.9594C175.971 78.9167 175.974 78.874 175.983 78.8313C176.213 77.2563 176.334 75.6418 176.334 73.9981C176.334 63.1929 171.147 53.623 163.219 47.8036C163.082 47.6801 162.932 47.5688 162.771 47.4712C157.802 43.9584 151.799 41.9003 145.341 41.9003C128.253 41.9003 114.348 56.2991 114.348 73.9983C114.348 81.8915 117.119 89.1227 121.7 94.7197L105.291 112.125C104.321 113.154 104.368 114.776 105.397 115.744C105.893 116.209 106.524 116.44 107.157 116.44C107.835 116.44 108.518 116.171 109.023 115.638L125.262 98.4123C127.524 100.41 130.064 102.079 132.817 103.343C132.609 104.512 132.502 105.708 132.502 106.912V120.414C132.502 121.828 133.65 122.976 135.063 122.976H170.223C171.636 122.976 172.784 121.828 172.784 120.414V106.912C172.784 102.553 171.388 98.3789 168.823 94.9286C169.703 93.8705 170.519 92.756 171.261 91.5866L171.249 91.5819ZM136.504 99.3514C139.929 95.0611 144.667 92.0897 150.058 90.8989C150.08 90.8989 150.106 90.8898 150.127 90.8867C151.809 90.5147 153.542 90.3272 155.283 90.3272H158.634C159.125 90.3272 159.616 90.3439 160.107 90.3744C161.848 90.4811 163.556 90.7708 165.218 91.2404C160.467 97.1836 153.32 100.974 145.336 100.974C142.232 100.974 139.263 100.402 136.5 99.3517L136.504 99.3514ZM171.211 73.9983C171.211 75.2271 171.126 76.4316 170.972 77.6147C168.572 81.2738 164.803 83.89 160.539 84.817C159.369 85.0731 158.169 85.2012 156.962 85.2012C147.729 85.2012 140.215 77.6878 140.215 68.4547C140.215 63.9557 141.978 59.7295 145.18 56.561C148.334 53.4324 152.518 51.711 156.962 51.711C158.124 51.711 159.268 51.8345 160.382 52.0693C166.93 56.9696 171.213 64.9709 171.213 73.9998L171.211 73.9983ZM145.341 47.0231C147.108 47.0231 148.829 47.2106 150.497 47.5613C147.172 48.5858 144.12 50.4047 141.58 52.9233C137.396 57.0597 135.096 62.5755 135.096 68.4578C135.096 76.2398 139.185 83.0791 145.324 86.9591C139.955 88.8969 135.292 92.3641 131.851 97.0079C124.432 92.2602 119.471 83.7223 119.471 74.0029C119.471 59.1303 131.078 47.0277 145.341 47.0277L145.341 47.0231ZM167.651 117.856H137.614V106.915C137.614 106.308 137.661 105.711 137.73 105.118C140.168 105.758 142.715 106.099 145.341 106.099C152.876 106.099 159.791 103.299 165.166 98.65C166.776 101.083 167.646 103.943 167.646 106.915V117.856L167.651 117.856Z" fill="#111739"/>
<path d="M34.1387 126.803C33.14 125.804 31.5178 125.804 30.5146 126.803C29.516 127.802 29.516 129.424 30.5146 130.427L59.0694 158.987C59.5694 159.487 60.2266 159.738 60.8791 159.738C61.5317 159.738 62.1903 159.487 62.6888 158.987C63.6875 157.988 63.6875 156.366 62.6888 155.363L34.1341 126.803H34.1387Z" fill="#111739"/>
<path d="M120.084 45.3112C120.997 46.2244 122.462 46.3098 123.466 45.4911C123.478 45.4789 123.492 45.4697 123.504 45.4575C124.669 44.5062 124.775 42.7589 123.708 41.6917L113.856 31.8396C112.857 30.8364 111.235 30.8364 110.237 31.8396C109.233 32.8382 109.233 34.4604 110.237 35.4591L120.086 45.308L120.084 45.3112Z" fill="#111739"/>
<path d="M138.791 126.803L110.237 155.363C109.238 156.361 109.238 157.983 110.237 158.987C110.737 159.487 111.394 159.738 112.046 159.738C112.699 159.738 113.357 159.487 113.856 158.987L142.411 130.427C143.409 129.429 143.409 127.806 142.411 126.803C141.412 125.804 139.79 125.804 138.787 126.803H138.791Z" fill="#111739"/>
<path d="M34.9193 62.1802C35.5764 62.1802 36.2305 61.9286 36.729 61.4285L62.6964 35.4611C63.6951 34.4625 63.6951 32.8403 62.6964 31.8416C61.6978 30.843 60.0756 30.843 59.0724 31.8416L33.1049 57.8091C32.1063 58.8077 32.1063 60.4299 33.1049 61.4285C33.605 61.9286 34.2621 62.1802 34.9147 62.1802H34.9193Z" fill="#111739"/>
<path d="M83.7426 106.698V116.982C83.7426 118.396 84.8906 119.544 86.304 119.544C87.7173 119.544 88.8653 118.396 88.8653 116.982V106.685C92.8995 105.715 96.0798 102.532 97.0497 98.4973H108.922C110.335 98.4973 111.483 97.3493 111.483 95.936C111.483 94.5226 110.335 93.3746 108.922 93.3746H97.0586C96.1027 89.3189 92.9179 86.1219 88.8712 85.1477V73.6095C88.8712 72.1962 87.7232 71.0481 86.3098 71.0481C84.8965 71.0481 83.7484 72.1962 83.7484 73.6095V85.1313C79.6717 86.0873 76.4575 89.2982 75.497 93.375H63.9798C62.5665 93.375 61.4185 94.523 61.4185 95.9364C61.4185 97.3497 62.5665 98.4977 63.9798 98.4977H75.506C76.4787 102.553 79.6803 105.746 83.7449 106.699L83.7426 106.698ZM86.278 89.9594C89.5606 89.9594 92.2333 92.6321 92.2333 95.9147C92.2333 99.1972 89.5606 101.87 86.278 101.87C82.9955 101.87 80.3228 99.1973 80.3228 95.9147C80.3228 92.6321 82.9955 89.9594 86.278 89.9594Z" fill="#111739"/>
</svg>
