<svg width="32" height="33" viewBox="0 0 32 33" fill="none" xmlns="http://www.w3.org/2000/svg">
<mask id="mask0_324_1865" style="mask-type:luminance" maskUnits="userSpaceOnUse" x="0" y="0" width="32" height="33">
<path d="M31.3171 0H0V32.4324H31.3171V0Z" fill="white"/>
</mask>
<g mask="url(#mask0_324_1865)">
<path d="M22.0198 26.5541C22.6976 26.2469 23.3519 25.887 23.9771 25.4772V30.4054C23.9771 30.6742 23.874 30.932 23.6904 31.1221C23.5069 31.3121 23.2579 31.4189 22.9984 31.4189C22.7388 31.4189 22.4899 31.3121 22.3063 31.1221C22.1228 30.932 22.0198 30.6742 22.0198 30.4054V26.5541ZM14.7899 11.6808C14.6713 11.9202 14.6472 12.1981 14.7225 12.4557C14.7977 12.7132 14.9666 12.9305 15.1936 13.0616L20.9188 16.2162L22.9984 15.0634L16.1233 11.2627C15.8921 11.1399 15.6238 11.1149 15.3751 11.1929C15.1264 11.2709 14.9165 11.4457 14.7899 11.6808ZM30.8032 11.2627L16.1233 3.15459C15.9789 3.07987 15.8198 3.04099 15.6584 3.04099C15.4971 3.04099 15.338 3.07987 15.1936 3.15459L0.513709 11.2627C0.358087 11.3511 0.228282 11.4814 0.137869 11.6396C0.0474559 11.7979 -0.000244141 11.9783 -0.000244141 12.1622C-0.000244141 12.3461 0.0474559 12.5265 0.137869 12.6848C0.228282 12.843 0.358087 12.9732 0.513709 13.0616L3.42522 14.658V20.967C3.42337 21.4021 3.56106 21.8254 3.81668 22.1706C4.78311 23.5135 8.50201 27.8717 15.6584 27.8717C17.8451 27.8905 20.0115 27.4375 22.0198 26.5414V16.8243L20.9188 16.2162L15.6584 19.1174L4.86874 13.163L3.05822 12.1622L15.6584 5.20695L28.2587 12.1622L26.4481 13.163L22.9984 15.0634L23.4633 15.3168C23.6287 15.4157 23.7643 15.5604 23.8547 15.7348C23.9361 15.8812 23.9783 16.0474 23.9771 16.2162V25.4772C25.3288 24.5966 26.5213 23.4774 27.5003 22.1706C27.7558 21.8254 27.8935 21.4021 27.8917 20.967V14.658L30.8032 13.0616C30.9588 12.9732 31.0886 12.843 31.1791 12.6848C31.2695 12.5265 31.3172 12.3461 31.3172 12.1622C31.3172 11.9783 31.2695 11.7979 31.1791 11.6396C31.0886 11.4814 30.9588 11.3511 30.8032 11.2627Z" fill="#111739"/>
</g>
</svg>
