<svg width="103" height="103" viewBox="0 0 103 103" fill="none" xmlns="http://www.w3.org/2000/svg">
<path d="M11.5417 102.875C8.40208 102.875 5.71441 101.757 3.47865 99.5214C1.24288 97.2856 0.125 94.5979 0.125 91.4583V11.5417C0.125 8.40208 1.24288 5.71441 3.47865 3.47865C5.71441 1.24288 8.40208 0.125 11.5417 0.125H91.4583C94.5979 0.125 97.2856 1.24288 99.5214 3.47865C101.757 5.71441 102.875 8.40208 102.875 11.5417V91.4583C102.875 94.5979 101.757 97.2856 99.5214 99.5214C97.2856 101.757 94.5979 102.875 91.4583 102.875H11.5417ZM11.5417 91.4583H91.4583V11.5417H11.5417V91.4583ZM17.25 80.0417H85.75L64.3438 51.5L47.2188 74.3333L34.375 57.2083L17.25 80.0417ZM31.5208 40.0833C33.8993 40.0833 35.921 39.2509 37.5859 37.5859C39.2509 35.921 40.0833 33.8993 40.0833 31.5208C40.0833 29.1424 39.2509 27.1207 37.5859 25.4557C35.921 23.7908 33.8993 22.9583 31.5208 22.9583C29.1424 22.9583 27.1207 23.7908 25.4557 25.4557C23.7908 27.1207 22.9583 29.1424 22.9583 31.5208C22.9583 33.8993 23.7908 35.921 25.4557 37.5859C27.1207 39.2509 29.1424 40.0833 31.5208 40.0833Z" fill="#D1D3D4"/>
</svg>
